<svg width="13" height="14" viewBox="0 0 13 14" fill="none" xmlns="http://www.w3.org/2000/svg">
<path d="M1 3.3999H2.2H11.8" stroke="black" stroke-width="1.2" stroke-linecap="round" stroke-linejoin="round"/>
<path d="M10.5997 3.4V11.8C10.5997 12.1183 10.4733 12.4235 10.2482 12.6485C10.0232 12.8736 9.71797 13 9.39971 13H3.39971C3.08145 13 2.77622 12.8736 2.55118 12.6485C2.32614 12.4235 2.19971 12.1183 2.19971 11.8V3.4M3.99971 3.4V2.2C3.99971 1.88174 4.12614 1.57652 4.35118 1.35147C4.57622 1.12643 4.88145 1 5.19971 1H7.59971C7.91797 1 8.22319 1.12643 8.44823 1.35147C8.67328 1.57652 8.79971 1.88174 8.79971 2.2V3.4" stroke="black" stroke-width="1.2" stroke-linecap="round" stroke-linejoin="round"/>
<path d="M5.2002 6.3999V9.9999" stroke="black" stroke-width="1.2" stroke-linecap="round" stroke-linejoin="round"/>
<path d="M7.6001 6.3999V9.9999" stroke="black" stroke-width="1.2" stroke-linecap="round" stroke-linejoin="round"/>
</svg>
