<svg width="14" height="16" viewBox="0 0 14 16" fill="none" xmlns="http://www.w3.org/2000/svg">
<path d="M1 3.68896H2.34444H13.1" fill="black"/>
<path d="M1 3.68896H2.34444H13.1" stroke="white" stroke-width="1.34444" stroke-linecap="round" stroke-linejoin="round"/>
<path d="M11.7556 3.68889V13.1C11.7556 13.4566 11.6139 13.7985 11.3618 14.0507C11.1097 14.3028 10.7677 14.4444 10.4111 14.4444H3.68893C3.33236 14.4444 2.99039 14.3028 2.73826 14.0507C2.48613 13.7985 2.34448 13.4566 2.34448 13.1V3.68889M4.36115 3.68889V2.34444C4.36115 1.98788 4.5028 1.64591 4.75493 1.39378C5.00706 1.14165 5.34902 1 5.70559 1H8.39448C8.75105 1 9.09302 1.14165 9.34515 1.39378C9.59728 1.64591 9.73893 1.98788 9.73893 2.34444V3.68889" fill="black"/>
<path d="M11.7556 3.68889V13.1C11.7556 13.4566 11.6139 13.7985 11.3618 14.0507C11.1097 14.3028 10.7677 14.4444 10.4111 14.4444H3.68893C3.33236 14.4444 2.99039 14.3028 2.73826 14.0507C2.48613 13.7985 2.34448 13.4566 2.34448 13.1V3.68889M4.36115 3.68889V2.34444C4.36115 1.98788 4.5028 1.64591 4.75493 1.39378C5.00706 1.14165 5.34902 1 5.70559 1H8.39448C8.75105 1 9.09302 1.14165 9.34515 1.39378C9.59728 1.64591 9.73893 1.98788 9.73893 2.34444V3.68889" stroke="white" stroke-width="1.34444" stroke-linecap="round" stroke-linejoin="round"/>
<path d="M5.70557 7.05005V11.0834" stroke="white" stroke-width="1.34444" stroke-linecap="round" stroke-linejoin="round"/>
<path d="M8.39453 7.05005V11.0834" stroke="white" stroke-width="1.34444" stroke-linecap="round" stroke-linejoin="round"/>
</svg>
