<svg width="13" height="13" viewBox="0 0 13 13" fill="none" xmlns="http://www.w3.org/2000/svg">
<path d="M4.34819 10.4676C4.34819 10.5213 4.2879 10.5644 4.21189 10.5644C4.1254 10.5724 4.06512 10.5294 4.06512 10.4676C4.06512 10.4138 4.1254 10.3708 4.20141 10.3708C4.28004 10.3627 4.34819 10.4058 4.34819 10.4676ZM3.53306 10.3466C3.51472 10.4004 3.56714 10.4622 3.64577 10.4783C3.71391 10.5052 3.79254 10.4783 3.80827 10.4246C3.82399 10.3708 3.77419 10.309 3.69556 10.2848C3.62742 10.266 3.55141 10.2929 3.53306 10.3466ZM4.69153 10.3009C4.61552 10.3197 4.5631 10.3708 4.57097 10.4326C4.57883 10.4864 4.64698 10.5213 4.72561 10.5025C4.80161 10.4837 4.85403 10.4326 4.84617 10.3789C4.83831 10.3278 4.76754 10.2929 4.69153 10.3009ZM6.41613 0C2.78085 0 0 2.8306 0 6.55904C0 9.54018 1.82944 12.0912 4.44254 12.989C4.77802 13.0509 4.89597 12.8385 4.89597 12.6638C4.89597 12.4971 4.8881 11.5778 4.8881 11.0133C4.8881 11.0133 3.05343 11.4165 2.66815 10.2122C2.66815 10.2122 2.36935 9.42996 1.93952 9.22835C1.93952 9.22835 1.33931 8.80632 1.98145 8.81438C1.98145 8.81438 2.63407 8.86814 2.99314 9.50792C3.56714 10.5455 4.52903 10.2472 4.90383 10.0697C4.96411 9.63964 5.13448 9.34125 5.32319 9.16384C3.85806 8.99717 2.37984 8.77943 2.37984 6.19345C2.37984 5.45422 2.57903 5.08325 2.99839 4.61014C2.93024 4.43542 2.70746 3.715 3.06653 2.7849C3.61431 2.61017 4.875 3.5107 4.875 3.5107C5.39919 3.36016 5.9627 3.28221 6.52097 3.28221C7.07923 3.28221 7.64274 3.36016 8.16693 3.5107C8.16693 3.5107 9.42762 2.60749 9.9754 2.7849C10.3345 3.71768 10.1117 4.43542 10.0435 4.61014C10.4629 5.08594 10.7198 5.4569 10.7198 6.19345C10.7198 8.7875 9.17601 8.99448 7.71089 9.16384C7.95202 9.3762 8.15645 9.77942 8.15645 10.4111C8.15645 11.317 8.14859 12.438 8.14859 12.6584C8.14859 12.8331 8.26915 13.0455 8.60202 12.9837C11.223 12.0912 13 9.54018 13 6.55904C13 2.8306 10.0514 0 6.41613 0ZM2.54758 9.27136C2.51351 9.29824 2.52137 9.36007 2.56593 9.41115C2.60786 9.45415 2.66814 9.47297 2.70222 9.43803C2.73629 9.41115 2.72843 9.34932 2.68387 9.29824C2.64194 9.25523 2.58165 9.23642 2.54758 9.27136ZM2.26452 9.05362C2.24617 9.08857 2.27238 9.13158 2.3248 9.15846C2.36673 9.18534 2.41915 9.17728 2.4375 9.13964C2.45585 9.1047 2.42964 9.06169 2.37722 9.03481C2.3248 9.01868 2.28286 9.02674 2.26452 9.05362ZM3.11371 10.0106C3.07177 10.0455 3.0875 10.1262 3.14778 10.1773C3.20806 10.2391 3.28407 10.2472 3.31815 10.2041C3.35222 10.1692 3.33649 10.0886 3.28407 10.0375C3.22641 9.97565 3.14778 9.96759 3.11371 10.0106ZM2.81492 9.61544C2.77298 9.64232 2.77298 9.71222 2.81492 9.77404C2.85685 9.83587 2.92762 9.86275 2.96169 9.83587C3.00363 9.80092 3.00363 9.73103 2.96169 9.66921C2.925 9.60738 2.85685 9.5805 2.81492 9.61544Z" fill="black"/>
</svg>
