<svg width="13" height="11" viewBox="0 0 13 11" fill="none" xmlns="http://www.w3.org/2000/svg">
<path d="M1 1.49902V4.49981H4.00079" stroke="black" stroke-width="0.750197" stroke-linecap="round" stroke-linejoin="round"/>
<path d="M12.0027 9.50103V6.50024H9.00195" stroke="black" stroke-width="0.750197" stroke-linecap="round" stroke-linejoin="round"/>
<path d="M10.7476 3.99961C10.4939 3.28281 10.0628 2.64195 9.4945 2.13683C8.92618 1.6317 8.23917 1.27877 7.49757 1.11098C6.75596 0.943178 5.98393 0.965979 5.25352 1.17725C4.52311 1.38852 3.85813 1.78138 3.32061 2.31916L1 4.49974M12.0029 6.50026L9.68228 8.68084C9.14477 9.21862 8.47978 9.61148 7.74937 9.82275C7.01896 10.034 6.24693 10.0568 5.50533 9.88903C4.76372 9.72123 4.07671 9.3683 3.50839 8.86317C2.94008 8.35805 2.50898 7.71719 2.25533 7.00039" stroke="black" stroke-width="0.750197" stroke-linecap="round" stroke-linejoin="round"/>
</svg>
