<?xml version="1.0" standalone="no"?>
<!DOCTYPE svg PUBLIC "-//W3C//DTD SVG 20010904//EN"
 "http://www.w3.org/TR/2001/REC-SVG-20010904/DTD/svg10.dtd">
<svg version="1.0" xmlns="http://www.w3.org/2000/svg"
 width="700.000000pt" height="700.000000pt" viewBox="0 0 700.000000 700.000000"
 preserveAspectRatio="xMidYMid meet">
<metadata>
Created by potrace 1.14, written by Peter Selinger 2001-2017
</metadata>
<g transform="translate(0.000000,700.000000) scale(0.100000,-0.100000)"
fill="#000000" stroke="none">
<path d="M3341 6823 c5 -28 -2 -36 -16 -17 -8 10 -15 14 -15 9 0 -14 -40 -14
-40 -1 0 5 -6 2 -13 -9 -11 -14 -16 -15 -22 -5 -5 9 -4 11 3 6 7 -4 12 -3 12
3 0 5 -9 9 -19 8 -11 0 -19 -4 -19 -7 2 -18 -3 -30 -10 -26 -4 2 -8 -6 -8 -19
0 -13 3 -22 7 -19 4 2 10 -3 13 -12 3 -8 2 -12 -3 -9 -5 3 -12 1 -16 -5 -3 -5
0 -10 7 -10 9 0 9 -3 -2 -10 -13 -8 -13 -10 0 -10 10 0 11 -3 3 -11 -9 -9 -9
-16 0 -31 10 -15 9 -21 -3 -28 -12 -8 -12 -10 -1 -10 11 0 11 -3 0 -17 -8 -9
-9 -14 -3 -10 7 4 15 0 18 -9 3 -8 2 -12 -3 -9 -5 3 -12 1 -16 -5 -3 -5 0 -10
7 -10 9 0 9 -3 -2 -10 -13 -8 -13 -10 -1 -10 11 0 12 -3 4 -11 -9 -9 -9 -16 0
-31 10 -15 9 -21 -3 -28 -12 -8 -12 -10 -1 -10 11 0 11 -3 0 -17 -8 -9 -9 -14
-3 -10 7 4 14 0 18 -8 3 -8 2 -14 -2 -14 -19 3 -25 -2 -12 -11 13 -9 13 -10 0
-10 -13 0 -13 -1 0 -10 11 -7 11 -10 2 -10 -7 0 -10 -5 -7 -10 4 -6 12 -8 18
-4 7 3 3 -2 -7 -10 -18 -15 -15 -20 9 -17 6 1 2 -5 -8 -13 -14 -10 -15 -15 -5
-19 11 -5 11 -7 0 -15 -15 -10 -15 -21 -1 -39 7 -7 5 -13 -3 -16 -10 -4 -10
-6 0 -6 6 -1 12 -6 12 -12 0 -5 -5 -7 -11 -3 -6 3 -3 -6 7 -22 18 -28 18 -29
0 -14 -18 14 -19 14 -7 -7 10 -19 9 -23 -4 -23 -9 0 -13 -4 -10 -10 7 -11 -8
-14 -19 -3 -10 10 -46 11 -40 1 3 -4 0 -8 -5 -8 -6 0 -11 6 -11 13 0 9 -3 8
-9 -2 -7 -11 -9 -11 -14 0 -5 12 -8 11 -17 -1 -9 -12 -13 -12 -17 -2 -4 10 -8
10 -21 0 -12 -10 -14 -10 -8 0 4 6 2 12 -3 12 -6 0 -11 -6 -11 -12 0 -9 -4 -8
-10 2 -6 10 -10 11 -10 3 0 -7 -5 -13 -11 -13 -5 0 -7 5 -3 11 5 8 1 8 -14 0
-27 -14 -35 -14 -26 2 5 8 2 8 -9 -2 -13 -10 -17 -10 -17 -1 0 10 -3 10 -15 0
-9 -7 -18 -10 -22 -6 -3 3 0 6 7 6 7 0 10 3 7 6 -4 4 -13 1 -22 -6 -12 -10
-15 -10 -15 0 0 9 -4 9 -17 -1 -11 -10 -14 -10 -9 -1 9 15 1 15 -26 1 -15 -8
-19 -8 -14 0 4 6 2 11 -3 11 -6 0 -11 -6 -11 -12 0 -9 -4 -8 -10 2 -6 10 -10
11 -10 3 0 -7 -5 -13 -11 -13 -5 0 -8 4 -5 8 2 4 -4 8 -14 8 -10 0 -16 -4 -14
-8 3 -4 0 -8 -5 -8 -6 0 -11 5 -11 10 0 6 -5 10 -11 10 -5 0 -7 -5 -3 -11 4
-7 -1 -7 -16 1 -15 8 -20 8 -16 1 4 -6 2 -11 -3 -11 -6 0 -11 6 -11 13 0 9 -3
8 -9 -2 -7 -11 -9 -11 -14 0 -4 12 -7 11 -16 -1 -7 -9 -14 -11 -18 -5 -11 13
-36 18 -28 5 3 -5 2 -10 -4 -10 -5 0 -12 6 -14 13 -3 7 -6 4 -6 -6 -1 -10 -5
-15 -11 -12 -5 3 -8 0 -6 -7 13 -42 16 -69 6 -63 -15 9 -12 -1 6 -19 14 -15
14 -16 -2 -16 -16 0 -16 -1 -1 -18 10 -10 17 -23 17 -28 0 -5 -5 -2 -10 6 -8
11 -10 8 -8 -15 1 -17 -1 -35 -4 -41 -4 -5 -3 -16 2 -24 5 -8 5 -22 -1 -32 -6
-12 -6 -18 1 -18 5 0 10 5 10 12 0 6 3 9 6 6 3 -4 -2 -17 -11 -31 -15 -23 -15
-26 0 -41 15 -15 15 -16 -1 -16 -16 0 -16 -1 -1 -18 10 -10 17 -23 17 -28 0
-5 -5 -2 -10 6 -8 11 -10 8 -8 -15 1 -17 -1 -35 -4 -41 -4 -5 -3 -16 2 -24 5
-8 5 -22 -1 -32 -6 -12 -6 -18 1 -18 5 0 10 5 10 12 0 6 3 9 6 6 3 -4 -2 -17
-11 -31 -15 -23 -15 -26 0 -41 15 -15 15 -16 -1 -16 -16 0 -16 -1 1 -20 14
-15 15 -23 6 -34 -6 -8 -11 -18 -10 -22 4 -21 -2 -26 -16 -14 -13 11 -18 10
-31 -6 -9 -10 -13 -14 -10 -7 4 6 2 14 -4 18 -5 3 -10 1 -10 -5 0 -8 -6 -8
-20 0 -11 6 -20 7 -20 3 0 -11 -47 -9 -57 2 -5 4 -2 5 6 0 10 -6 12 -4 6 5 -6
10 -11 9 -22 -5 -9 -13 -13 -14 -13 -5 0 9 -5 8 -16 -6 -8 -10 -13 -14 -10 -7
4 6 2 14 -4 18 -5 3 -10 1 -10 -5 0 -6 -5 -8 -12 -4 -7 5 -25 7 -41 6 -16 -2
-37 3 -46 10 -14 11 -14 11 -4 -2 10 -14 7 -16 -27 -16 -22 0 -40 3 -40 8 0 4
-5 8 -11 8 -5 0 -8 -4 -5 -9 4 -5 -3 -7 -15 -4 -12 3 -24 0 -29 -6 -5 -9 -9
-8 -13 4 -5 10 -3 14 5 9 7 -4 8 -3 4 5 -6 9 -11 9 -22 0 -7 -6 -11 -16 -7
-22 3 -6 1 -7 -6 -3 -6 4 -9 11 -6 15 2 5 -7 6 -20 3 -14 -2 -33 2 -43 9 -15
12 -16 12 -4 -2 10 -14 8 -16 -17 -15 -16 1 -27 4 -25 7 2 4 -3 10 -12 13 -8
3 -13 2 -10 -3 10 -15 -32 -19 -51 -5 -10 7 -13 14 -7 14 5 0 16 -6 24 -12 9
-8 8 -5 -1 7 -9 11 -14 26 -11 34 3 9 0 11 -9 6 -11 -6 -11 -5 -2 5 6 7 9 19
6 28 -4 10 -2 13 5 8 8 -5 10 -2 6 8 -3 9 -9 14 -13 11 -4 -2 -8 2 -8 10 0 8
4 12 9 9 4 -3 8 -1 8 5 0 5 -5 13 -10 16 -13 8 -13 25 1 25 5 0 7 -5 3 -12 -4
-6 -3 -8 3 -5 14 9 4 58 -11 50 -8 -4 -7 -2 1 7 6 7 9 19 6 28 -4 10 -2 13 5
8 8 -5 10 -2 6 8 -3 9 -11 13 -18 9 -6 -4 -5 1 3 10 11 14 11 17 0 18 -11 0
-11 2 1 7 12 6 11 11 -9 32 -18 18 -22 20 -18 7 5 -13 3 -16 -6 -10 -14 9 -36
14 -54 14 -48 -2 -62 -5 -57 -12 3 -5 -2 -6 -10 -3 -9 3 -13 11 -9 18 3 6 -3
2 -15 -8 -12 -11 -25 -16 -29 -13 -3 4 -1 7 5 7 7 0 12 4 12 10 0 5 -6 7 -12
5 -31 -11 -68 -13 -68 -4 0 6 -5 7 -10 4 -6 -4 -7 -11 -4 -17 4 -6 -3 -4 -16
5 -15 10 -30 13 -44 8 -11 -5 -27 -6 -35 -3 -8 3 -11 0 -7 -7 5 -7 1 -9 -8 -5
-9 3 -13 11 -9 18 3 6 -3 2 -15 -8 -12 -11 -25 -16 -29 -13 -3 4 -1 7 5 7 7 0
12 4 12 10 0 5 -6 7 -12 5 -31 -11 -68 -13 -68 -4 0 6 -5 7 -10 4 -6 -4 -7
-11 -4 -17 4 -6 -3 -4 -16 5 -15 10 -30 13 -44 8 -11 -5 -27 -6 -35 -3 -8 3
-11 0 -7 -7 5 -7 1 -9 -8 -5 -9 3 -13 10 -10 15 9 15 -2 10 -31 -15 -15 -13
-23 -26 -17 -30 6 -3 8 -16 5 -29 -4 -18 -3 -19 6 -7 17 24 13 2 -5 -26 -16
-23 -16 -24 2 -17 17 6 17 5 5 -10 -7 -9 -10 -17 -7 -17 4 0 1 -10 -5 -22 -12
-22 -11 -22 6 -8 11 9 16 10 11 3 -12 -22 -15 -53 -5 -53 6 0 7 -5 4 -10 -4
-6 -11 -8 -16 -5 -5 3 -6 -1 -3 -9 3 -9 11 -13 18 -9 8 4 8 2 -1 -7 -6 -7 -9
-19 -6 -28 4 -10 2 -13 -5 -8 -8 5 -10 2 -6 -8 3 -9 10 -16 15 -16 5 0 9 -5 9
-11 0 -5 -4 -8 -9 -5 -5 3 -8 -5 -8 -19 0 -15 4 -22 11 -18 6 3 2 -4 -9 -17
-11 -13 -14 -20 -6 -15 10 6 12 2 6 -14 -4 -12 -2 -21 4 -21 6 0 11 -5 11 -11
0 -5 -4 -8 -9 -5 -5 3 -9 -5 -9 -19 1 -15 5 -22 12 -18 6 3 4 -2 -5 -13 -11
-13 -14 -25 -9 -39 5 -12 9 -14 9 -6 1 8 4 12 7 9 3 -4 -2 -18 -11 -32 -17
-25 -17 -26 1 -19 17 6 17 5 5 -10 -7 -9 -10 -17 -7 -17 4 0 1 -10 -5 -22 -12
-22 -11 -22 6 -8 11 9 16 10 11 3 -12 -22 -15 -53 -5 -53 6 0 7 -5 4 -10 -4
-6 -11 -8 -16 -5 -5 3 -6 -1 -3 -9 3 -9 11 -13 18 -9 6 3 2 -4 -9 -17 -11 -13
-14 -20 -6 -15 10 6 12 2 6 -14 -4 -12 -2 -21 4 -21 6 0 11 -5 11 -11 0 -5 -4
-8 -9 -5 -5 3 -8 -5 -8 -19 0 -15 4 -22 11 -18 7 4 7 2 -1 -7 -6 -7 -9 -19 -6
-28 4 -10 2 -13 -5 -8 -8 5 -10 2 -6 -8 3 -9 9 -14 13 -11 4 2 8 -2 8 -10 0
-8 -4 -12 -7 -10 -4 3 -7 -6 -7 -20 0 -16 4 -22 11 -18 6 4 4 -1 -4 -12 -17
-21 -17 -25 1 -36 8 -5 17 -3 21 4 5 8 8 5 8 -7 0 -16 3 -17 12 -8 7 7 17 12
23 12 5 0 3 -5 -5 -10 -9 -6 -10 -10 -3 -10 7 0 17 8 22 18 10 16 10 16 11 -2
0 -15 3 -16 15 -6 9 7 18 10 22 6 3 -3 0 -6 -7 -6 -7 0 -10 -3 -7 -6 4 -4 13
-1 22 6 12 10 15 10 15 0 0 -9 3 -10 13 -1 10 8 17 7 26 -2 10 -9 15 -8 27 7
14 20 14 20 14 0 0 -14 2 -16 9 -5 7 11 9 11 14 0 4 -11 9 -10 21 5 16 19 16
19 16 1 0 -15 3 -16 12 -7 15 15 28 15 28 1 0 -5 -5 -7 -12 -3 -7 4 -8 3 -4
-5 6 -9 11 -9 22 0 12 10 15 10 12 -2 -2 -8 -7 -18 -13 -22 -6 -6 -5 -10 3
-14 10 -4 10 -8 1 -20 -10 -12 -10 -16 2 -24 12 -8 12 -10 -1 -19 -13 -9 -13
-11 0 -20 13 -9 13 -10 0 -10 -13 0 -13 -1 0 -10 13 -9 13 -11 0 -21 -11 -8
-12 -12 -2 -16 6 -2 12 -9 12 -14 0 -6 -6 -7 -12 -3 -9 5 -9 2 1 -9 11 -14 11
-17 0 -17 -12 0 -12 -2 0 -9 11 -7 11 -10 0 -15 -11 -5 -11 -7 -1 -12 10 -5
10 -9 0 -22 -10 -12 -10 -14 0 -8 6 4 12 3 12 -3 0 -5 -6 -12 -12 -14 -10 -4
-10 -6 0 -6 7 -1 11 -5 7 -11 -3 -5 -12 -7 -19 -4 -8 3 -17 1 -21 -5 -3 -6
-11 -11 -16 -11 -6 0 -8 4 -5 8 3 5 -1 9 -9 9 -8 0 -12 -4 -9 -9 3 -4 1 -8 -5
-8 -5 0 -13 5 -16 10 -5 8 -11 7 -21 -1 -8 -6 -14 -8 -14 -4 0 4 -7 2 -16 -5
-8 -8 -14 -9 -13 -4 4 23 -2 26 -16 8 -15 -19 -15 -19 -9 1 6 16 5 18 -7 8
-15 -15 -33 -18 -25 -5 3 5 -1 9 -9 9 -8 0 -12 -4 -9 -9 3 -4 1 -8 -5 -8 -5 0
-13 5 -16 10 -5 8 -11 7 -21 -1 -8 -6 -14 -8 -14 -4 0 4 -6 2 -14 -4 -11 -9
-16 -9 -22 0 -5 8 -3 9 6 4 9 -6 11 -4 5 4 -6 10 -11 9 -24 -4 -12 -13 -13
-19 -3 -22 6 -3 12 -9 12 -14 0 -6 -4 -8 -9 -5 -5 3 -8 -5 -9 -19 0 -15 5 -22
12 -18 6 3 4 -2 -5 -13 -11 -13 -14 -25 -9 -39 5 -12 9 -14 9 -6 1 8 4 12 7 9
3 -4 -2 -18 -11 -32 -17 -25 -17 -26 1 -19 17 6 17 5 5 -10 -7 -9 -10 -17 -7
-17 4 0 1 -10 -5 -22 -12 -22 -11 -22 6 -8 11 9 16 10 11 3 -12 -22 -15 -53
-5 -53 6 0 7 -5 4 -10 -4 -6 -11 -8 -16 -5 -5 3 -6 -1 -3 -9 3 -9 11 -13 18
-9 6 3 2 -4 -9 -17 -11 -13 -14 -20 -6 -15 10 6 12 2 6 -14 -4 -12 -2 -21 4
-21 6 0 11 -5 11 -11 0 -5 -4 -8 -9 -5 -5 3 -8 -5 -8 -19 0 -15 4 -22 11 -18
6 3 2 -4 -9 -17 -11 -13 -14 -20 -6 -15 10 6 12 2 6 -14 -4 -12 -2 -21 4 -21
6 0 11 -5 11 -11 0 -5 -4 -8 -9 -5 -5 3 -8 -5 -8 -19 0 -15 4 -22 11 -18 6 3
4 -2 -5 -13 -11 -13 -14 -25 -9 -39 5 -12 9 -14 9 -6 1 8 4 12 7 9 3 -4 -2
-18 -11 -32 -17 -25 -17 -26 1 -19 17 6 17 5 5 -10 -7 -9 -10 -17 -7 -17 4 0
1 -10 -5 -22 -12 -22 -11 -22 6 -8 11 9 16 10 11 3 -12 -22 -15 -53 -5 -53 6
0 7 -5 4 -10 -4 -6 -11 -8 -16 -5 -5 3 -6 -1 -3 -9 3 -9 11 -13 18 -9 8 4 8 2
-1 -7 -6 -7 -9 -19 -6 -28 4 -10 2 -13 -5 -8 -8 5 -10 2 -6 -8 3 -9 10 -16 15
-16 5 0 9 -5 9 -11 0 -5 -4 -8 -9 -5 -5 3 -9 -5 -9 -19 0 -15 5 -22 12 -18 6
3 2 -4 -9 -17 -11 -13 -14 -20 -6 -15 10 6 12 2 6 -14 -4 -12 -2 -21 4 -21 6
0 11 -5 11 -11 0 -5 -4 -8 -9 -5 -5 3 -8 -5 -8 -19 0 -15 4 -22 11 -18 6 3 4
-2 -5 -13 -11 -13 -14 -25 -9 -39 5 -12 9 -14 9 -6 1 8 4 12 7 9 3 -4 -2 -18
-11 -32 -17 -25 -17 -26 1 -19 17 6 17 5 5 -10 -7 -9 -10 -17 -7 -17 4 0 1
-10 -5 -22 -12 -22 -11 -22 6 -8 11 9 16 10 11 2 -13 -21 -18 -64 -6 -57 6 3
7 0 4 -9 -3 -9 -11 -13 -18 -9 -7 4 -7 2 1 -8 9 -11 9 -19 2 -26 -8 -8 -7 -13
2 -18 8 -5 10 -4 5 3 -4 7 -2 12 3 12 16 0 13 -11 -6 -33 -10 -11 -12 -17 -4
-12 10 6 12 2 6 -14 -4 -14 -2 -21 6 -21 7 0 5 -6 -6 -13 -14 -11 -15 -16 -5
-22 9 -6 11 -4 5 5 -5 9 -4 11 4 6 9 -6 9 -11 0 -22 -9 -11 -9 -14 0 -14 7 0
9 -5 6 -10 -4 -6 -11 -8 -16 -5 -5 3 -6 -1 -3 -9 3 -9 11 -13 18 -9 6 3 2 -4
-9 -17 -11 -13 -14 -20 -6 -15 11 6 13 4 7 -10 -4 -11 -2 -22 6 -27 10 -6 10
-8 1 -8 -7 0 -13 -5 -13 -11 0 -5 4 -7 10 -4 6 3 7 -1 4 -9 -3 -9 -11 -13 -18
-9 -7 4 -7 2 1 -8 9 -11 9 -19 2 -26 -8 -8 -7 -13 2 -18 8 -5 10 -4 5 3 -4 7
-2 12 3 12 16 0 13 -11 -7 -33 -9 -11 -11 -17 -3 -12 10 6 12 2 6 -14 -4 -14
-2 -21 6 -21 7 0 5 -6 -6 -13 -14 -11 -15 -16 -5 -22 9 -6 11 -4 5 5 -5 9 -4
11 4 6 9 -6 9 -11 0 -22 -9 -11 -9 -14 0 -14 7 0 9 -5 6 -10 -4 -6 -11 -8 -16
-5 -5 3 -6 -1 -3 -9 3 -9 11 -13 18 -9 6 3 2 -4 -9 -17 -11 -13 -14 -20 -6
-15 11 6 13 4 7 -10 -4 -11 -2 -22 6 -27 10 -6 10 -8 1 -8 -7 0 -13 -5 -13
-11 0 -5 4 -7 10 -4 6 3 7 -1 4 -9 -3 -9 -11 -13 -18 -9 -7 4 -7 2 1 -8 9 -11
9 -19 2 -26 -8 -8 -7 -13 2 -18 8 -5 10 -4 5 3 -4 7 -2 12 3 12 16 0 13 -11
-6 -33 -10 -11 -12 -17 -4 -12 10 6 12 2 6 -14 -4 -14 -2 -21 6 -21 7 0 5 -6
-6 -13 -14 -11 -15 -16 -5 -22 9 -6 11 -4 5 5 -5 9 -4 11 4 6 9 -6 9 -11 0
-22 -9 -11 -9 -14 0 -14 7 0 9 -5 6 -10 -4 -6 -11 -8 -16 -5 -5 3 -6 -1 -3 -9
3 -9 11 -13 18 -9 6 3 2 -4 -9 -17 -11 -13 -14 -20 -6 -15 11 6 13 4 7 -10 -4
-11 -2 -22 6 -27 10 -6 10 -8 1 -8 -7 0 -13 -5 -13 -11 0 -5 4 -7 10 -4 6 3 7
-1 4 -9 -3 -9 -11 -13 -18 -9 -7 4 -7 2 1 -8 9 -11 9 -19 2 -26 -8 -8 -7 -13
2 -18 8 -5 10 -4 5 3 -4 7 -2 12 3 12 16 0 13 -11 -6 -33 -10 -11 -12 -17 -4
-12 10 6 12 2 6 -14 -4 -14 -2 -21 6 -21 7 0 5 -6 -6 -13 -14 -11 -15 -16 -5
-22 9 -6 11 -4 5 5 -5 9 -4 11 3 6 9 -5 9 -13 2 -26 -10 -19 2 -22 27 -7 6 4
15 2 19 -4 5 -8 3 -9 -6 -4 -9 5 -11 4 -6 -3 5 -9 16 -8 42 3 31 13 34 12 34
-2 0 -15 2 -14 13 2 11 14 16 15 22 5 6 -9 4 -11 -5 -5 -9 5 -11 4 -6 -4 6 -9
11 -9 21 -1 8 6 24 10 37 9 13 -2 28 0 35 4 6 4 15 2 19 -4 5 -8 3 -9 -6 -4
-9 6 -11 4 -6 -4 6 -9 12 -8 26 4 14 12 20 13 26 4 5 -8 3 -10 -6 -4 -9 5 -11
4 -6 -3 5 -9 12 -8 28 1 16 9 22 9 25 -1 3 -6 10 -9 16 -5 8 4 7 1 -1 -9 -10
-13 -10 -17 0 -21 10 -4 10 -8 -2 -17 -11 -9 -12 -13 -2 -17 6 -2 12 -9 12
-14 0 -6 -6 -7 -12 -3 -9 5 -9 2 1 -9 11 -14 11 -17 0 -17 -12 0 -12 -2 0 -9
11 -7 11 -9 0 -14 -12 -5 -12 -7 0 -15 9 -7 10 -12 2 -16 -6 -4 -11 -13 -11
-19 0 -7 4 -6 10 3 6 9 10 10 10 3 0 -6 -5 -15 -11 -19 -8 -4 -7 -9 2 -15 12
-8 11 -11 -1 -19 -13 -9 -13 -10 0 -10 12 0 13 -2 1 -9 -11 -7 -11 -9 0 -14
10 -4 10 -6 2 -6 -7 -1 -13 -6 -13 -12 0 -5 5 -7 12 -3 7 4 8 3 4 -5 -4 -6 -2
-19 5 -27 10 -12 10 -15 -1 -12 -7 2 -15 -3 -18 -11 -3 -10 0 -11 9 -5 12 6
12 5 1 -8 -10 -13 -10 -17 0 -21 10 -4 10 -7 -1 -15 -11 -8 -11 -10 0 -15 12
-5 12 -6 0 -6 -11 -1 -11 -4 0 -18 10 -11 10 -14 2 -9 -7 4 -13 3 -13 -3 0 -5
6 -12 13 -14 9 -4 8 -8 -3 -17 -12 -9 -12 -13 -2 -17 10 -4 10 -8 1 -20 -10
-12 -10 -16 2 -24 12 -8 12 -10 -1 -19 -13 -9 -13 -11 0 -20 13 -9 13 -10 0
-10 -13 0 -13 -1 0 -10 13 -9 13 -11 0 -21 -11 -8 -12 -12 -2 -16 6 -2 12 -9
12 -14 0 -6 -6 -7 -12 -3 -9 5 -9 2 1 -9 11 -14 11 -17 0 -17 -12 0 -12 -2 0
-9 11 -7 11 -9 0 -14 -12 -5 -12 -7 0 -15 9 -7 10 -12 2 -16 -6 -4 -11 -13
-11 -19 0 -7 4 -6 10 3 6 9 10 10 10 3 0 -6 -5 -15 -11 -19 -8 -4 -7 -9 2 -15
12 -8 11 -11 -1 -19 -13 -9 -13 -10 0 -10 13 0 13 -2 1 -9 -12 -8 -12 -12 -2
-24 9 -12 9 -16 -1 -21 -10 -5 -10 -7 0 -12 6 -3 12 -10 12 -15 0 -6 -5 -7
-11 -3 -7 4 -7 -1 1 -16 8 -15 8 -20 1 -16 -6 4 -11 3 -11 -3 0 -5 6 -12 13
-14 9 -4 8 -8 -3 -17 -12 -9 -12 -13 -2 -17 10 -4 10 -8 1 -20 -10 -12 -10
-16 2 -24 12 -8 12 -10 -1 -19 -13 -9 -13 -11 0 -20 13 -9 13 -11 0 -20 -13
-9 -13 -10 0 -10 13 0 13 -1 0 -10 -12 -8 -13 -11 -1 -19 9 -6 10 -11 2 -15
-6 -4 -11 -13 -11 -19 0 -7 4 -6 10 3 6 9 10 10 10 3 0 -6 -5 -15 -11 -19 -8
-4 -7 -9 2 -15 12 -8 11 -11 -1 -19 -13 -9 -13 -10 0 -10 12 0 13 -2 1 -9 -11
-7 -11 -9 0 -14 10 -4 10 -6 2 -6 -7 -1 -13 -6 -13 -12 0 -5 5 -7 12 -3 7 4 8
3 4 -5 -4 -6 -2 -19 5 -27 10 -12 10 -15 -1 -12 -7 2 -15 -3 -18 -11 -3 -10 0
-11 9 -5 12 6 12 5 1 -8 -10 -13 -10 -17 0 -22 10 -5 10 -7 0 -12 -18 -8 -4
-24 15 -17 10 4 14 2 9 -5 -3 -6 -2 -13 4 -17 5 -3 10 1 10 11 0 15 2 15 26
-1 15 -10 23 -12 19 -4 -6 9 -3 11 8 6 10 -4 17 -1 17 6 0 8 4 6 10 -3 5 -8
10 -10 10 -5 0 6 18 10 39 10 31 0 37 -3 28 -13 -8 -11 -5 -11 17 -1 23 11 29
10 37 -2 7 -11 9 -11 9 0 0 7 6 11 15 7 8 -3 15 -1 15 4 0 5 9 8 19 7 11 0 17
-5 14 -11 -4 -5 1 -7 10 -3 13 5 15 -1 12 -44 -1 -27 1 -52 7 -55 5 -4 3 -13
-6 -23 -10 -11 -12 -21 -6 -31 6 -9 4 -20 -3 -29 -10 -12 -9 -14 7 -7 20 7 20
7 0 -15 -10 -12 -14 -19 -8 -16 7 4 15 0 18 -9 4 -9 2 -13 -5 -8 -7 4 -10 1
-7 -7 3 -8 1 -23 -5 -34 -10 -19 -9 -19 8 -5 12 10 16 11 11 2 -12 -21 -14
-62 -3 -69 6 -4 7 -1 2 7 -6 10 -4 12 8 7 9 -3 18 -1 21 6 2 7 5 4 5 -5 1 -20
16 -24 27 -7 4 8 9 7 15 -2 6 -10 9 -11 9 -1 0 6 5 12 11 12 5 0 8 -4 5 -8 -3
-5 1 -9 9 -9 8 0 12 4 9 9 -3 4 2 8 11 8 9 0 14 -4 11 -8 -3 -5 1 -9 9 -9 8 0
12 4 9 9 -3 4 2 8 11 8 9 0 14 -4 11 -8 -3 -5 1 -9 9 -9 8 0 12 4 9 9 -3 4 2
8 11 8 9 0 14 -4 11 -8 -3 -5 1 -9 9 -9 8 0 12 4 9 9 -3 4 2 8 11 8 9 0 14 -4
11 -8 -3 -5 1 -9 9 -9 8 0 12 4 9 9 -3 4 2 8 11 8 9 0 14 -4 11 -8 -3 -5 1 -9
9 -9 8 0 12 4 9 9 -3 4 2 8 11 8 9 0 14 -4 11 -8 -3 -5 1 -9 9 -9 8 0 12 4 9
9 -3 4 2 8 11 8 9 0 14 -4 11 -9 -7 -10 20 -9 30 2 10 10 26 9 20 -1 -2 -4 6
-8 19 -8 13 0 21 4 19 8 -7 11 4 10 28 -3 18 -10 20 -9 14 6 -5 14 -4 16 7 7
8 -7 17 -9 20 -5 4 3 7 1 7 -6 0 -7 5 -9 10 -6 6 4 8 12 4 18 -3 7 1 4 9 -6
10 -12 17 -14 22 -8 4 8 12 8 27 0 18 -10 20 -9 14 6 -5 14 -4 16 7 7 8 -7 17
-9 20 -5 4 3 7 1 7 -6 0 -7 5 -9 10 -6 6 4 8 12 4 18 -3 7 1 4 9 -6 10 -12 17
-14 22 -8 4 8 12 8 27 0 18 -10 20 -9 14 6 -5 14 -4 16 7 7 8 -7 17 -9 20 -5
4 3 7 1 7 -6 0 -7 5 -9 10 -6 6 4 8 12 4 18 -3 7 1 4 9 -6 10 -12 17 -14 22
-8 4 8 12 8 27 0 18 -10 20 -9 14 6 -5 14 -4 16 7 7 8 -7 17 -9 20 -5 4 3 7 1
7 -6 0 -7 5 -9 10 -6 6 4 8 12 4 18 -3 7 1 4 9 -6 10 -12 17 -14 22 -8 4 8 12
8 27 0 18 -10 20 -9 14 6 -5 14 -4 16 7 7 8 -7 17 -9 20 -5 4 3 7 1 7 -6 0 -7
5 -9 10 -6 6 4 8 11 5 16 -3 5 1 6 9 3 9 -3 14 -9 11 -13 -2 -4 2 -8 10 -8 8
0 12 4 9 9 -3 4 2 8 11 8 9 0 14 -4 11 -8 -3 -5 1 -9 9 -9 8 0 12 4 9 9 -3 4
2 8 11 8 9 0 14 -4 11 -8 -3 -5 1 -9 9 -9 8 0 12 4 9 9 -3 4 2 8 11 8 9 0 14
-4 11 -8 -3 -5 1 -9 9 -9 8 0 12 4 9 9 -3 4 2 8 11 8 9 0 14 -4 11 -8 -3 -5 1
-9 9 -9 8 0 12 4 9 9 -3 4 2 8 11 8 9 0 14 -4 11 -8 -3 -5 1 -9 9 -9 8 0 12 4
9 9 -3 4 2 8 11 8 9 0 14 -4 11 -8 -3 -5 1 -9 9 -9 8 0 12 4 9 9 -3 4 2 8 11
8 9 0 14 -4 11 -8 -3 -5 8 -8 24 -8 16 0 27 3 24 8 -7 11 4 10 28 -3 18 -10
20 -9 14 6 -5 14 -4 16 7 7 8 -7 17 -9 20 -5 4 3 7 1 7 -6 0 -7 5 -9 10 -6 6
4 8 12 4 18 -3 7 1 4 9 -6 10 -12 17 -14 22 -8 4 8 12 8 27 0 18 -10 20 -9 14
6 -5 14 -4 16 7 7 8 -7 17 -9 20 -5 4 3 7 1 7 -6 0 -7 5 -9 10 -6 6 4 8 12 4
18 -3 7 1 4 9 -6 10 -12 17 -14 22 -8 4 8 12 8 27 0 18 -10 20 -9 15 4 -4 11
-2 14 9 10 7 -3 14 -10 14 -16 0 -8 4 -7 12 1 8 8 17 8 31 0 17 -9 19 -8 13 7
-5 14 -4 16 7 7 8 -7 17 -9 20 -5 4 3 7 1 7 -6 0 -7 5 -9 10 -6 6 4 8 12 4 18
-3 7 1 4 9 -6 10 -12 17 -14 22 -8 4 8 12 8 27 0 18 -10 20 -9 14 6 -5 14 -4
16 7 7 8 -7 17 -9 20 -5 4 3 7 1 7 -6 0 -7 5 -9 10 -6 6 4 8 12 4 18 -3 7 1 4
9 -6 10 -12 17 -14 22 -8 4 8 12 8 27 0 18 -10 20 -9 14 7 -6 15 -4 16 5 7 6
-6 18 -9 27 -6 9 4 13 2 9 -3 -3 -6 5 -10 18 -10 13 0 21 4 19 8 -7 11 4 10
28 -3 18 -10 20 -9 14 6 -5 14 -4 16 7 7 8 -7 17 -9 20 -5 4 3 7 1 7 -6 0 -7
5 -9 10 -6 6 4 8 12 4 18 -3 7 1 4 9 -6 10 -12 17 -14 22 -8 4 8 12 8 27 0 18
-10 20 -9 14 6 -5 14 -4 16 7 7 8 -7 17 -9 20 -5 4 3 7 1 7 -6 0 -7 5 -9 10
-6 6 4 8 12 4 18 -3 7 1 4 9 -6 10 -12 17 -14 22 -8 4 8 12 8 27 0 18 -10 20
-9 14 6 -5 14 -4 16 7 7 8 -7 17 -9 20 -5 4 3 7 1 7 -6 0 -7 5 -9 10 -6 6 4 8
12 4 18 -3 7 1 4 9 -6 10 -12 17 -14 22 -8 4 8 12 8 27 0 18 -10 20 -9 14 6
-5 14 -4 16 7 7 8 -7 17 -9 20 -5 4 3 7 1 7 -6 0 -7 5 -9 10 -6 6 4 8 12 4 18
-3 7 1 4 9 -6 10 -12 17 -14 22 -8 4 8 12 8 27 0 18 -10 20 -9 14 6 -5 14 -4
16 7 7 8 -7 17 -9 20 -5 4 3 7 1 7 -6 0 -8 5 -9 19 -1 23 12 34 13 27 2 -2 -4
6 -8 19 -8 13 0 21 4 19 8 -7 11 4 10 28 -3 18 -10 20 -9 14 6 -5 14 -4 16 7
7 8 -7 17 -9 20 -5 4 3 7 1 7 -6 0 -7 5 -9 10 -6 6 4 8 12 4 18 -3 7 1 4 9 -6
10 -12 17 -14 22 -8 4 8 12 8 27 0 18 -10 20 -9 14 6 -5 14 -4 16 7 7 8 -7 17
-9 20 -5 4 3 7 1 7 -6 0 -7 5 -9 10 -6 6 4 8 12 4 18 -3 7 1 4 9 -6 10 -12 17
-14 22 -8 4 8 12 8 27 0 18 -10 20 -9 14 6 -5 14 -4 16 7 7 8 -7 17 -9 20 -5
4 3 7 1 7 -6 0 -7 5 -9 10 -6 6 4 8 12 4 18 -3 7 1 4 9 -6 10 -12 17 -14 22
-8 4 8 12 8 27 0 18 -10 20 -9 14 6 -5 14 -4 16 7 7 8 -7 17 -9 20 -5 4 3 7 1
7 -6 0 -7 5 -9 10 -6 6 4 8 12 4 18 -3 7 1 4 9 -6 10 -12 17 -14 22 -8 4 8 12
8 27 0 18 -10 20 -9 14 6 -5 14 -4 16 7 7 8 -7 17 -9 20 -5 4 3 7 1 7 -6 0 -8
5 -9 19 -1 23 12 34 13 27 2 -2 -4 6 -8 19 -8 13 0 21 4 19 8 -7 11 4 10 28
-3 18 -10 20 -9 15 5 -5 12 -3 15 5 9 29 -17 44 -10 40 19 -2 15 1 34 7 42 9
11 9 16 0 22 -7 4 -9 3 -5 -4 3 -6 2 -13 -3 -16 -11 -7 -3 65 9 78 5 4 2 26
-5 47 -10 29 -11 39 -2 43 9 3 9 5 0 5 -7 1 -13 5 -13 11 0 5 8 6 18 3 16 -6
16 -5 -1 12 -15 14 -16 20 -5 26 11 7 11 9 -1 9 -8 0 -4 8 10 21 l24 20 -25
-11 c-24 -10 -24 -10 -6 4 17 13 22 14 35 2 16 -14 45 -11 36 4 -7 11 78 0 94
-14 12 -8 13 -8 7 2 -9 16 16 16 32 0 9 -9 13 -7 18 6 6 15 7 15 21 -1 10 -13
13 -14 10 -3 -4 12 5 15 45 13 39 -1 47 1 38 12 -8 10 -8 15 1 21 8 4 9 3 5
-4 -4 -7 -2 -12 3 -12 16 0 13 11 -6 33 -10 11 -13 17 -6 14 6 -4 14 -3 18 3
3 5 2 10 -4 10 -6 0 -7 7 -4 17 4 10 2 14 -5 9 -7 -4 -9 2 -4 21 9 33 7 165
-2 188 -3 9 -2 14 3 11 5 -3 12 1 15 10 3 8 2 13 -3 10 -5 -3 -12 1 -15 10 -3
8 -2 13 3 10 5 -3 11 1 15 9 3 8 1 17 -3 20 -5 2 -11 16 -13 30 -3 13 -2 22 2
20 5 -3 11 2 14 11 9 23 7 31 -3 16 -6 -10 -10 -7 -13 12 -3 15 -1 29 5 33 6
4 7 1 2 -7 -6 -9 -4 -11 4 -6 9 6 8 13 -6 28 -9 11 -13 19 -8 18 24 -5 27 1 9
16 -10 8 -14 13 -7 10 8 -5 10 8 7 45 -2 28 -7 56 -11 62 -3 5 -1 7 4 4 6 -4
14 0 17 9 3 8 2 13 -3 10 -5 -3 -12 1 -15 10 -3 8 -2 13 3 10 5 -3 11 1 15 9
3 8 1 17 -3 20 -5 3 -9 20 -9 39 0 19 -3 40 -8 47 -4 7 -3 10 3 6 6 -4 14 0
17 9 9 24 7 31 -4 14 -8 -12 -10 -10 -10 10 0 15 5 31 11 37 8 8 7 13 -2 18
-8 6 -10 4 -4 -5 6 -9 4 -11 -4 -5 -9 5 -9 11 -3 17 6 6 7 22 2 39 -5 16 -5
27 0 24 4 -3 11 2 14 11 3 8 2 13 -3 10 -5 -3 -12 1 -15 10 -3 8 -2 13 3 10 5
-3 11 1 15 9 3 8 1 17 -3 20 -5 3 -9 20 -9 39 0 19 -3 40 -8 47 -4 7 -3 10 3
6 6 -4 14 0 17 9 9 24 7 31 -4 14 -8 -12 -10 -10 -10 10 0 15 5 31 11 37 8 8
7 13 -2 18 -8 6 -10 4 -4 -5 5 -9 4 -11 -4 -6 -7 5 -8 13 -4 19 5 7 8 26 6 42
-1 17 3 40 10 53 9 19 17 23 40 18 17 -3 26 -2 22 4 -3 6 1 7 9 4 9 -3 13 -11
9 -18 -3 -6 3 -3 14 7 16 14 23 15 29 6 5 -8 3 -10 -6 -4 -8 5 -11 4 -6 -3 4
-6 13 -9 21 -6 8 4 13 10 10 14 -3 5 4 6 15 3 11 -3 18 -8 16 -12 -3 -4 6 -7
19 -7 13 0 21 4 19 8 -3 5 -10 5 -16 2 -7 -4 -8 -2 -4 4 4 7 15 8 29 3 12 -4
28 -6 36 -3 8 3 11 0 7 -7 -5 -7 -1 -9 8 -5 9 3 14 10 11 14 -3 5 4 6 15 3 11
-3 17 -10 13 -16 -4 -6 -1 -7 6 -2 7 4 10 16 8 27 -4 14 -2 17 7 9 9 -8 13 -7
13 4 0 8 -5 15 -10 15 -5 0 -5 6 2 13 8 10 7 17 -2 27 -9 10 -9 11 1 6 13 -8
13 19 -1 41 -4 6 -1 14 5 16 10 4 9 6 -1 6 -11 1 -11 4 -1 16 9 10 9 15 1 15
-6 0 -11 5 -11 11 0 5 4 8 8 5 5 -3 9 1 9 9 0 8 -4 15 -9 15 -4 0 -8 5 -8 11
0 5 6 7 13 3 9 -6 9 -4 -1 8 -10 13 -10 17 0 21 10 4 10 6 1 6 -7 1 -13 6 -13
12 0 5 5 7 10 4 6 -3 10 -2 10 4 0 5 -6 12 -12 14 -9 4 -9 8 -3 14 13 11 18
36 5 28 -14 -9 -13 8 2 23 9 9 9 12 0 12 -7 0 -12 5 -12 11 0 5 3 8 8 6 4 -3
8 6 8 19 1 13 -3 24 -8 24 -7 0 -6 5 1 13 8 10 7 17 -2 27 -9 10 -9 11 1 6 13
-8 13 19 -1 41 -4 6 -1 14 5 16 10 4 9 6 -1 6 -11 1 -11 4 -1 16 9 10 9 15 1
15 -6 0 -11 5 -11 11 0 5 3 8 8 6 4 -3 7 8 7 24 1 16 -3 29 -7 29 -4 0 -3 11
2 25 6 16 6 25 0 25 -6 0 -10 5 -10 11 0 5 6 7 13 3 9 -6 9 -4 -1 8 -10 13
-10 17 0 21 10 4 10 6 1 6 -7 1 -13 6 -13 12 0 5 5 7 10 4 6 -3 10 -2 10 4 0
5 -6 12 -12 14 -9 4 -9 8 -3 14 13 11 18 36 5 28 -13 -8 -13 1 1 27 6 11 7 18
2 15 -5 -4 -10 0 -10 8 0 8 4 12 9 9 9 -6 6 25 -5 42 -3 6 -3 14 0 18 11 11
11 56 0 56 -5 0 -5 6 2 13 8 10 7 17 -2 27 -9 10 -9 11 1 6 13 -8 13 19 -1 41
-4 6 -1 14 5 16 10 4 9 6 -1 6 -11 1 -11 4 -1 16 9 10 9 15 1 15 -6 0 -11 5
-11 11 0 5 4 8 8 5 4 -2 8 4 8 14 0 10 -3 17 -6 15 -4 -2 -7 2 -7 10 0 8 4 12
9 9 9 -6 6 25 -5 42 -3 6 -3 14 0 18 11 11 11 56 0 56 -5 0 -5 6 2 13 8 10 7
17 -2 27 -9 10 -9 11 1 6 13 -8 13 19 -1 41 -4 6 -1 14 5 16 10 4 9 6 -1 6
-11 1 -11 4 -1 16 9 10 9 15 1 15 -6 0 -11 5 -11 11 0 5 4 8 8 5 5 -3 9 1 9 9
0 8 -4 15 -9 15 -4 0 -8 5 -8 11 0 5 6 7 13 3 9 -6 9 -4 -1 8 -10 13 -10 17 0
21 10 4 10 6 1 6 -7 1 -13 6 -13 12 0 5 5 7 10 4 6 -3 10 -2 10 4 0 5 -6 12
-12 14 -9 4 -9 8 -3 14 13 11 18 36 5 28 -14 -9 -13 8 2 23 9 9 9 12 0 12 -7
0 -12 5 -12 11 0 5 3 8 8 6 4 -3 8 6 8 19 1 13 -3 24 -8 24 -7 0 -6 5 1 13 8
10 7 17 -2 27 -9 10 -9 11 1 6 13 -8 13 19 -1 41 -4 6 -1 14 5 16 10 4 9 6 -1
6 -11 1 -11 4 -1 16 9 10 9 15 1 15 -6 0 -11 5 -11 11 0 5 3 8 8 6 4 -3 7 8 7
24 1 16 -3 29 -7 29 -4 0 -3 11 2 25 6 16 6 25 0 25 -6 0 -10 5 -10 11 0 5 6
7 13 3 9 -6 9 -4 -1 8 -10 13 -10 17 0 21 10 4 10 6 1 6 -7 1 -13 6 -13 12 0
5 5 7 10 4 6 -3 10 -2 10 4 0 5 -6 12 -12 14 -9 4 -9 8 -3 14 13 11 18 36 5
28 -13 -8 -13 1 1 27 6 11 7 18 2 15 -5 -4 -10 0 -10 8 0 8 4 12 9 9 9 -6 6
25 -5 42 -3 6 -3 14 0 18 11 11 11 56 0 56 -5 0 -5 6 2 13 8 10 7 17 -2 27 -9
10 -9 11 1 6 13 -8 13 19 -1 41 -4 6 -1 14 5 16 10 4 9 6 -1 6 -11 1 -11 4 -1
16 9 10 9 15 1 15 -6 0 -11 5 -11 11 0 5 4 8 8 5 4 -2 8 4 8 14 0 10 -3 17 -6
15 -4 -2 -7 2 -7 10 0 8 4 12 9 9 9 -6 6 25 -5 42 -3 6 -3 14 0 18 11 11 11
56 0 56 -5 0 -5 6 2 13 8 10 7 17 -2 27 -9 10 -9 11 1 6 13 -8 13 19 -1 41 -4
6 -1 14 5 16 10 4 9 6 -1 6 -11 1 -11 4 -1 16 9 10 9 15 1 15 -6 0 -11 5 -11
11 0 5 4 8 8 5 5 -3 9 1 9 9 0 8 -4 15 -9 15 -4 0 -8 5 -8 11 0 5 6 7 13 3 9
-6 9 -4 -1 8 -10 13 -10 17 0 21 10 4 10 6 1 6 -7 1 -13 6 -13 12 0 5 5 7 10
4 6 -3 10 -2 10 4 0 5 -6 12 -12 14 -9 4 -9 8 -3 14 13 11 18 36 5 28 -14 -9
-13 8 2 23 9 9 9 12 0 12 -7 0 -12 5 -12 11 0 5 3 8 8 6 4 -3 8 6 8 19 1 13
-3 24 -8 24 -7 0 -6 5 1 13 8 10 7 17 -2 27 -9 10 -9 11 1 6 13 -8 13 19 -1
41 -4 6 -1 14 5 16 10 4 9 6 -1 6 -11 1 -11 4 -1 16 9 10 9 15 1 15 -6 0 -11
5 -11 11 0 5 3 8 8 6 4 -3 7 8 7 24 1 16 -3 29 -7 29 -4 0 -3 11 2 25 6 16 6
25 0 25 -6 0 -10 5 -10 11 0 5 6 7 13 3 9 -6 9 -4 -1 8 -10 13 -10 17 0 21 10
4 10 6 1 6 -7 1 -13 6 -13 12 0 5 5 7 10 4 6 -3 10 -2 10 4 0 5 -6 12 -12 14
-9 4 -9 8 -3 14 13 11 18 36 5 28 -13 -8 -13 1 1 27 6 11 7 18 2 15 -5 -4 -10
0 -10 8 0 8 4 12 9 9 9 -6 6 25 -5 42 -3 6 -3 14 0 18 12 11 11 56 -1 56 -6 0
-6 4 2 12 9 9 9 15 -1 27 -9 12 -9 13 1 7 13 -8 13 19 -1 41 -4 6 -1 14 5 16
10 4 9 6 -1 6 -11 1 -11 4 -1 16 9 10 9 15 1 15 -6 0 -11 5 -11 11 0 5 4 8 8
5 4 -2 7 9 7 27 0 17 -6 32 -13 35 -7 2 -10 8 -7 12 3 5 -8 5 -24 0 -19 -5
-33 -4 -41 3 -10 9 -12 8 -7 -6 5 -13 3 -16 -6 -10 -14 9 -36 14 -54 14 -48
-2 -62 -5 -57 -12 3 -5 -2 -6 -10 -3 -9 3 -13 11 -9 18 3 6 -3 2 -15 -8 -12
-11 -25 -16 -29 -13 -3 4 -1 7 5 7 7 0 12 4 12 10 0 5 -6 7 -12 5 -31 -11 -68
-13 -68 -4 0 6 -5 7 -10 4 -6 -4 -7 -11 -4 -17 4 -6 -3 -4 -16 5 -15 10 -30
13 -44 8 -11 -5 -27 -6 -35 -3 -8 3 -11 0 -7 -7 5 -7 1 -9 -8 -5 -9 3 -13 11
-9 18 3 6 -3 2 -15 -8 -12 -11 -25 -16 -29 -13 -3 4 -1 7 5 7 7 0 12 4 12 10
0 5 -6 7 -12 5 -31 -11 -68 -13 -68 -4 0 6 -5 7 -10 4 -6 -4 -8 -11 -5 -16 3
-5 -1 -6 -9 -3 -9 3 -13 11 -9 18 3 6 -2 4 -13 -5 -12 -11 -26 -14 -39 -9 -11
4 -24 5 -30 2 -5 -3 -7 -2 -3 3 4 4 3 16 -2 26 -8 13 -6 19 8 22 16 4 16 5 0
6 -10 0 -18 6 -18 12 0 5 5 7 11 3 8 -4 8 0 0 15 -10 18 -9 21 6 21 14 1 13 4
-7 15 -19 11 -21 14 -8 15 15 0 16 4 7 28 -13 34 -13 33 3 43 10 7 10 9 1 9
-7 0 -13 5 -13 11 0 5 5 7 11 3 8 -4 8 0 0 15 -9 16 -9 21 1 21 8 1 5 7 -6 15
-17 13 -17 15 -4 15 9 0 20 5 24 12 4 6 3 8 -3 5 -6 -4 -13 2 -16 13 -3 13 -1
18 6 13 7 -4 7 0 -1 9 -11 14 -10 17 5 21 17 4 17 5 1 6 -10 0 -18 6 -18 12 0
5 5 7 11 3 8 -4 8 0 0 15 -10 18 -9 21 6 21 14 1 13 4 -7 15 -19 11 -21 14 -8
15 14 0 16 5 9 23 -14 35 -14 39 1 48 10 7 10 9 1 9 -7 0 -13 5 -13 11 0 5 5
7 11 3 8 -5 8 -1 0 14 -15 28 -14 32 6 32 15 0 14 2 -3 15 -15 11 -16 15 -4
15 10 1 9 4 -5 10 -17 7 -17 9 -3 9 11 1 15 6 12 16 -4 8 -11 12 -18 8 -6 -4
-5 1 3 10 11 14 11 17 -1 17 -8 0 -20 -6 -27 -12 -9 -8 -11 -8 -8 -2 4 7 0 15
-9 18 -8 3 -12 2 -9 -4 3 -5 -3 -9 -12 -8 -10 0 -33 -2 -50 -5 -18 -2 -30 -1
-28 3 3 4 -4 10 -15 13 -11 3 -18 2 -15 -3 3 -4 -2 -11 -11 -14 -24 -9 -31 -7
-14 4 13 8 12 10 -2 10 -10 0 -18 -6 -18 -12 0 -10 -2 -10 -8 0 -7 10 -15 10
-36 2 -18 -6 -25 -6 -21 0 7 11 -30 8 -41 -3 -11 -10 -24 -8 -24 4 0 5 5 7 12
3 7 -4 8 -3 4 5 -6 9 -11 9 -22 0 -9 -7 -14 -8 -14 -1 0 12 -26 10 -37 -3 -4
-4 -3 -5 4 -1 6 3 14 2 17 -3 9 -14 -19 -7 -39 9 -9 7 -15 9 -14 4 4 -23 -2
-26 -17 -8 -8 10 -13 14 -10 8 3 -7 -1 -15 -10 -18 -12 -5 -15 -2 -10 11 6 14
4 14 -15 -3 -12 -10 -19 -14 -16 -8 4 7 0 15 -9 18 -9 4 -13 2 -8 -5 4 -7 1
-10 -7 -7 -8 3 -24 2 -35 -3 -14 -5 -29 -2 -43 7 -12 9 -21 12 -20 7 4 -22 -3
-25 -17 -7 -8 10 -13 14 -10 7 7 -14 -3 -45 -13 -39 -4 3 -7 -4 -7 -15 0 -10
5 -19 10 -19 6 0 5 -5 -2 -12 -8 -8 -8 -17 -1 -31 8 -14 8 -18 0 -13 -6 4 -11
3 -11 -3 0 -5 6 -11 13 -14 9 -3 9 -7 -2 -20 -9 -11 -10 -17 -2 -17 6 0 11 -5
11 -11 0 -5 -4 -8 -8 -5 -4 2 -8 -4 -8 -15 0 -10 4 -19 9 -19 4 0 5 -6 1 -12
-12 -19 -12 -48 -1 -48 5 0 4 -6 -2 -14 -9 -11 -9 -15 1 -19 10 -4 10 -6 1 -6
-7 -1 -13 -6 -13 -12 0 -5 5 -7 12 -3 6 4 8 3 4 -4 -7 -11 -37 -9 -58 4 -7 4
-8 3 -4 -4 4 -7 2 -12 -3 -12 -6 0 -11 5 -11 10 0 6 -5 10 -11 10 -5 0 -8 -4
-5 -8 2 -4 -4 -8 -14 -8 -10 0 -16 4 -14 8 3 4 0 8 -5 8 -6 0 -11 -6 -11 -12
0 -9 -4 -8 -10 2 -6 10 -10 11 -10 3 0 -7 -5 -13 -11 -13 -5 0 -7 5 -3 11 5 8
1 8 -14 0 -27 -14 -35 -14 -26 2 5 8 2 8 -9 -2 -13 -10 -17 -10 -17 -1 0 10
-3 10 -15 0 -9 -7 -18 -10 -22 -6 -3 3 0 6 7 6 7 0 10 3 7 6 -4 4 -13 1 -22
-6 -12 -10 -15 -10 -15 0 0 9 -4 9 -17 -1 -11 -10 -14 -10 -9 -1 9 15 1 15
-26 1 -15 -8 -19 -8 -14 0 4 6 2 11 -3 11 -6 0 -11 -6 -11 -12 0 -9 -4 -8 -10
2 -6 10 -10 11 -10 3 0 -7 -5 -13 -11 -13 -5 0 -7 5 -3 11 4 7 -1 7 -16 -1
-15 -8 -20 -8 -16 -1 4 6 2 11 -3 11 -6 0 -11 -6 -11 -12 0 -9 -4 -8 -10 2 -6
10 -10 11 -10 3 0 -7 -5 -13 -11 -13 -5 0 -7 5 -3 11 5 8 1 8 -14 0 -27 -14
-35 -14 -26 2 5 8 2 8 -9 -2 -13 -10 -17 -10 -17 -1 0 9 -4 9 -17 -1 -11 -10
-14 -10 -9 -1 4 6 3 12 -3 12 -5 0 -13 -5 -16 -10 -4 -7 -11 -8 -18 -1 -20 16
-23 16 -39 3 -13 -10 -17 -9 -24 5 -9 20 -13 44 -16 91 -1 17 -6 32 -12 32 -5
0 -1 9 8 19 13 15 14 20 4 24 -10 4 -10 6 0 6 6 1 12 6 12 12 0 5 -5 7 -11 3
-8 -4 -8 0 0 15 6 11 8 33 5 47 -5 21 -4 25 7 20 8 -4 5 0 -5 8 -11 9 -15 16
-9 16 16 0 23 25 11 41 -8 11 -9 11 -4 -3 3 -10 1 -20 -4 -23 -5 -3 -7 8 -5
25 2 18 -1 30 -7 30 -6 0 -3 9 6 19 13 15 14 20 4 24 -10 4 -10 6 0 6 6 1 12
6 12 12 0 5 -5 7 -11 3 -8 -4 -8 0 0 15 6 11 8 33 5 47 -5 21 -4 25 7 20 8 -4
5 0 -5 8 -11 9 -15 16 -9 16 16 0 23 25 11 41 -8 11 -9 11 -4 -3 3 -10 1 -20
-4 -23 -5 -3 -7 8 -5 25 2 16 -1 32 -6 36 -6 3 -3 12 8 20 14 11 15 14 3 14
-10 1 -9 4 5 10 16 7 17 9 3 9 -9 1 -18 6 -20 13 -3 7 -16 13 -31 13 -14 1
-24 -2 -21 -7 3 -4 1 -8 -5 -8 -5 0 -12 6 -15 13 -3 8 -9 6 -20 -7 -10 -12
-16 -15 -16 -7 0 8 -6 11 -16 7 -8 -3 -13 -2 -10 2 3 5 -1 9 -9 9 -8 0 -11 -5
-8 -10 3 -5 0 -7 -8 -5 -8 3 -13 11 -11 18 2 9 -6 7 -24 -5 -22 -14 -28 -15
-35 -4 -8 12 -12 11 -22 -2 -10 -14 -14 -14 -25 -3 -19 21 -37 17 -21 -3 12
-16 12 -17 -2 -5 -9 7 -30 12 -46 10 -16 -1 -34 1 -41 6 -7 4 -12 2 -12 -6 -1
-8 -6 -6 -15 6 -13 17 -15 18 -15 3 0 -9 -5 -17 -11 -17 -5 0 -8 4 -5 9 3 4
-8 7 -25 5 -17 -2 -39 1 -50 7 -11 5 -19 6 -18 2z m547 -228 c-3 -3 -9 2 -12
12 -6 14 -5 15 5 6 7 -7 10 -15 7 -18z m0 -240 c-3 -3 -9 2 -12 12 -6 14 -5
15 5 6 7 -7 10 -15 7 -18z m2067 -824 c3 -5 2 -12 -3 -15 -5 -3 -9 1 -9 9 0
17 3 19 12 6z m0 -960 c3 -5 2 -12 -3 -15 -5 -3 -9 1 -9 9 0 17 3 19 12 6z m0
-320 c3 -5 2 -12 -3 -15 -5 -3 -9 1 -9 9 0 17 3 19 12 6z m0 -960 c3 -5 2 -12
-3 -15 -5 -3 -9 1 -9 9 0 17 3 19 12 6z m0 -320 c3 -5 2 -12 -3 -15 -5 -3 -9
1 -9 9 0 17 3 19 12 6z m-688 -2518 c-4 -3 -2 -12 4 -19 7 -8 6 -14 -2 -20 -7
-4 -9 -3 -5 4 3 6 2 13 -4 17 -10 6 -5 25 7 25 4 0 3 -3 0 -7z"/>
<path d="M3890 6741 c0 -6 4 -13 10 -16 6 -3 7 1 4 9 -7 18 -14 21 -14 7z"/>
<path d="M3890 6501 c0 -6 4 -13 10 -16 6 -3 7 1 4 9 -7 18 -14 21 -14 7z"/>
<path d="M3890 6261 c0 -6 4 -13 10 -16 6 -3 7 1 4 9 -7 18 -14 21 -14 7z"/>
<path d="M3890 6221 c0 -6 4 -13 10 -16 6 -3 7 1 4 9 -7 18 -14 21 -14 7z"/>
<path d="M2505 5480 c-3 -5 -1 -10 4 -10 6 0 11 5 11 10 0 6 -2 10 -4 10 -3 0
-8 -4 -11 -10z"/>
</g>
</svg>
