<svg width="20" height="20" viewBox="0 0 20 20" fill="none" xmlns="http://www.w3.org/2000/svg">
<path d="M1 3H1.9L19 3" stroke="black" stroke-width="2" stroke-linecap="round"/>
<path d="M3 3V17.1176C3 17.5882 3.02412 18.0855 3.43686 18.5294C3.87372 18.9993 4.3125 19 4.75 19C6.15 19 12.3333 19 15.25 19C15.6869 19 16.1237 19 16.5619 18.5294C17 18.0588 17 17.5882 17 17.1176C17 15.6118 17 7.07843 17 3" stroke="black" stroke-width="2"/>
<path d="M7 8L13 14" stroke="black" stroke-width="2" stroke-linecap="round"/>
<path d="M13 8L7 14" stroke="black" stroke-width="2" stroke-linecap="round"/>
<path d="M13 2C13 1.8042 12.931 1.49339 12.7119 1.27024C12.558 1.11349 12.3301 1 12 1C11.2 1 9 1 8 1C7.79265 1 7.45631 1.07739 7.2317 1.32846C7.09523 1.481 7 1.69765 7 2" stroke="black" stroke-width="2"/>
</svg>
