<svg width="24" height="24" viewBox="0 0 24 24" fill="none" xmlns="http://www.w3.org/2000/svg">
<path d="M5.19645 13.2C4.86548 13.2 4.58333 13.0822 4.35 12.8465C4.11667 12.6108 4 12.3275 4 11.9965C4 11.6655 4.11785 11.3834 4.35355 11.15C4.58923 10.9167 4.87257 10.8 5.20355 10.8C5.53452 10.8 5.81667 10.9179 6.05 11.1536C6.28333 11.3893 6.4 11.6726 6.4 12.0036C6.4 12.3346 6.28215 12.6167 6.04645 12.85C5.81077 13.0834 5.52743 13.2 5.19645 13.2ZM11.9965 13.2C11.6655 13.2 11.3833 13.0822 11.15 12.8465C10.9167 12.6108 10.8 12.3275 10.8 11.9965C10.8 11.6655 10.9179 11.3834 11.1536 11.15C11.3892 10.9167 11.6726 10.8 12.0036 10.8C12.3345 10.8 12.6167 10.9179 12.85 11.1536C13.0833 11.3893 13.2 11.6726 13.2 12.0036C13.2 12.3346 13.0821 12.6167 12.8464 12.85C12.6108 13.0834 12.3274 13.2 11.9965 13.2ZM18.7964 13.2C18.4655 13.2 18.1833 13.0822 17.95 12.8465C17.7167 12.6108 17.6 12.3275 17.6 11.9965C17.6 11.6655 17.7179 11.3834 17.9536 11.15C18.1892 10.9167 18.4726 10.8 18.8036 10.8C19.1345 10.8 19.4167 10.9179 19.65 11.1536C19.8833 11.3893 20 11.6726 20 12.0036C20 12.3346 19.8821 12.6167 19.6464 12.85C19.4108 13.0834 19.1274 13.2 18.7964 13.2Z" fill="black"/>
</svg>
