<svg width="207" height="192" viewBox="0 0 207 192" fill="none" xmlns="http://www.w3.org/2000/svg">
<path d="M205.721 140.7C205.183 138.673 204.313 136.75 203.146 135.008C203.396 134.091 203.587 133.159 203.714 132.217C204.543 126.241 202.471 120.77 198.567 116.537C196.452 114.225 194.185 112.698 191.784 111.761C193.36 105.018 194.157 98.117 194.161 91.193C194.161 88.03 193.982 84.932 193.682 81.88C193.526 80.356 193.337 78.836 193.115 77.32C192.428 72.847 191.408 68.431 190.064 64.11C189.183 61.2707 188.164 58.476 187.01 55.736C185.281 51.6782 183.262 47.75 180.969 43.982C179.465 41.475 177.827 39.0508 176.062 36.72C175.197 35.543 174.296 34.3938 173.358 33.274C170.58 29.898 167.561 26.7277 164.325 23.788C163.25 22.7997 162.145 21.8453 161.01 20.926C159.893 19.9943 158.751 19.0927 157.586 18.222C155.241 16.4766 152.818 14.8392 150.324 13.315C136.543 4.94502 120.382 0.14502 103.109 0.14502C52.8169 0.14502 12.0569 40.907 12.0569 91.196C12.0549 98.208 12.8669 105.196 14.4769 112.02C12.3169 112.958 10.2469 114.42 8.32689 116.535C4.42389 120.766 2.35089 126.217 3.17989 132.193C3.30589 133.142 3.49489 134.082 3.74689 135.006C2.58099 136.749 1.71159 138.673 1.17389 140.7C-0.0261118 145.261 0.368888 149.374 1.89389 152.978C0.235888 157.688 0.649889 162.704 2.80889 167.065C4.37889 170.25 6.62589 172.714 9.39589 174.916C12.6889 177.534 16.8109 179.758 21.7829 181.892C27.7149 184.422 34.9559 186.799 38.2489 187.671C46.7549 189.873 54.9109 191.269 63.1769 191.337C74.9539 191.446 85.0959 188.677 92.3569 181.59C95.9239 182.027 99.5149 182.246 103.109 182.244C106.906 182.236 110.699 181.997 114.467 181.529C121.711 188.661 131.892 191.455 143.712 191.343C151.977 191.277 160.133 189.881 168.617 187.676C171.932 186.804 179.17 184.427 185.105 181.897C190.077 179.76 194.199 177.536 197.514 174.922C200.263 172.719 202.508 170.256 204.079 167.071C206.26 162.709 206.652 157.693 205.017 152.983C206.527 149.379 206.92 145.257 205.721 140.7ZM197.281 152.673C198.952 155.844 199.059 159.427 197.585 162.764C195.349 167.821 189.795 171.805 179.008 176.082C172.3 178.742 166.158 180.443 166.104 180.458C157.232 182.759 149.208 183.928 142.262 183.928C130.76 183.928 122.201 180.754 116.773 174.486C107.594 176.05 98.2219 176.103 89.0259 174.644C83.5909 180.808 75.0809 183.928 63.6759 183.928C56.7289 183.928 48.7059 182.759 39.8329 180.458C39.7789 180.443 33.6389 178.742 26.9289 176.082C16.1429 171.805 10.5869 167.824 8.35189 162.764C6.87789 159.427 6.98489 155.844 8.65589 152.673C8.80989 152.378 8.97589 152.091 9.15289 151.813C8.15149 150.309 7.47979 148.61 7.18189 146.827C6.88409 145.045 6.96689 143.22 7.42489 141.472C8.08889 138.949 9.45989 136.851 11.3219 135.344C10.4249 133.87 9.83639 132.23 9.59189 130.522C9.05589 126.808 10.2889 123.1 13.0619 120.076C15.2219 117.723 18.2749 116.428 21.6549 116.428H21.7449C19.1964 108.259 17.9043 99.75 17.9129 91.193C17.9129 44.522 55.7489 6.68302 102.427 6.68302C149.104 6.68302 186.94 44.518 186.94 91.193C186.947 99.773 185.646 108.304 183.081 116.492C183.489 116.452 183.889 116.432 184.282 116.431C187.662 116.431 190.716 117.726 192.874 120.079C195.647 123.1 196.881 126.811 196.344 130.525C196.1 132.233 195.511 133.873 194.615 135.347C196.477 136.854 197.849 138.952 198.512 141.475C198.97 143.223 199.053 145.048 198.755 146.831C198.458 148.613 197.786 150.312 196.784 151.816C196.961 152.091 197.129 152.378 197.281 152.673Z" fill="white"/>
<path d="M196.784 151.816C197.786 150.312 198.458 148.613 198.756 146.831C199.053 145.048 198.97 143.223 198.512 141.475C197.848 138.952 196.476 136.854 194.615 135.347C195.512 133.873 196.1 132.233 196.344 130.525C196.881 126.811 195.648 123.103 192.874 120.079C190.716 117.726 187.662 116.431 184.282 116.431C183.889 116.431 183.489 116.452 183.081 116.492C185.643 108.304 186.942 99.774 186.933 91.195C186.933 44.5231 149.097 6.68506 102.424 6.68506C55.75 6.68506 17.9099 44.5191 17.9099 91.195C17.9015 99.752 19.1936 108.261 21.742 116.43H21.6519C18.2719 116.43 15.219 117.724 13.06 120.077C10.287 123.098 9.0529 126.81 9.5899 130.523C9.8346 132.231 10.4231 133.872 11.3199 135.346C9.4579 136.852 8.086 138.95 7.422 141.473C6.9642 143.222 6.8817 145.047 7.1799 146.83C7.4781 148.612 8.1501 150.312 9.1519 151.816C8.9739 152.094 8.8099 152.381 8.6549 152.676C6.9849 155.847 6.877 159.43 8.352 162.767C10.588 167.824 16.1419 171.808 26.9289 176.085C33.6359 178.745 39.779 180.446 39.833 180.461C48.705 182.762 56.729 183.931 63.675 183.931C75.081 183.931 83.591 180.811 89.026 174.647C98.222 176.106 107.594 176.052 116.773 174.489C122.201 180.757 130.76 183.931 142.262 183.931C149.208 183.931 157.232 182.762 166.103 180.461C166.158 180.446 172.298 178.745 179.008 176.085C189.795 171.808 195.35 167.824 197.585 162.767C199.059 159.43 198.952 155.847 197.281 152.676C197.129 152.379 196.961 152.091 196.784 151.816ZM85.137 164.997C84.669 165.815 84.168 166.614 83.635 167.391C82.23 169.448 80.382 171.02 78.237 172.188C74.1369 174.424 68.947 175.205 63.675 175.205C55.346 175.205 46.808 173.256 42.023 172.015C41.787 171.954 12.689 163.735 16.373 156.739C16.993 155.562 18.0129 155.092 19.2979 155.092C24.4849 155.092 33.9299 162.816 37.9889 162.816C38.8959 162.816 39.5359 162.43 39.7969 161.488C41.5269 155.284 13.5039 152.676 15.8639 143.692C16.2799 142.102 17.41 141.456 18.998 141.456C25.856 141.455 41.248 153.516 44.467 153.516C44.714 153.516 44.8909 153.443 44.9869 153.291C45.0009 153.268 45.015 153.246 45.028 153.222C46.539 150.727 45.6719 148.913 35.3209 142.573L34.3269 141.968C22.9359 135.074 14.9409 130.925 19.4879 125.975C20.0109 125.404 20.7529 125.151 21.6539 125.151C22.7219 125.151 24.0149 125.508 25.4389 126.108C31.4549 128.645 39.793 135.564 43.276 138.581C43.8239 139.057 44.3683 139.538 44.9089 140.022C44.9089 140.022 49.319 144.608 51.985 144.608C52.599 144.608 53.1199 144.366 53.4729 143.768C55.364 140.58 35.9099 125.838 34.8129 119.755C34.0689 115.634 35.3349 113.546 37.6749 113.546C38.7879 113.546 40.1459 114.02 41.6449 114.971C46.2949 117.922 55.2729 133.35 58.5599 139.352C59.6619 141.363 61.5429 142.213 63.2379 142.213C66.6009 142.213 69.2299 138.87 63.5459 134.622C55.0029 128.23 58.001 117.782 62.078 117.139C62.252 117.111 62.4279 117.097 62.6029 117.097C66.3109 117.097 67.9459 123.486 67.9459 123.486C67.9459 123.486 72.7399 135.524 80.975 143.753C88.447 151.222 89.491 157.351 85.137 164.997ZM111.766 166.407L111.339 166.458L110.611 166.541C110.228 166.581 109.844 166.619 109.459 166.654L109.084 166.688L108.741 166.717L108.255 166.756L107.718 166.795L107.182 166.83L107.063 166.838C106.923 166.846 106.783 166.855 106.641 166.862L106.462 166.872C106.296 166.881 106.13 166.889 105.962 166.896L105.381 166.921L104.854 166.939L104.502 166.949H104.323C104.213 166.949 104.104 166.955 103.994 166.956H103.82C103.71 166.956 103.601 166.956 103.491 166.961L103.043 166.967H102.418C101.927 166.967 101.437 166.962 100.949 166.952L100.553 166.943C100.44 166.943 100.327 166.938 100.216 166.934L99.796 166.922L99.275 166.902L98.805 166.881L98.684 166.876L98.237 166.853C98.112 166.846 97.989 166.84 97.865 166.831L97.576 166.814C97.213 166.791 96.85 166.766 96.487 166.738L96.107 166.707C95.947 166.695 95.787 166.68 95.628 166.666C95.441 166.65 95.254 166.632 95.067 166.614C94.754 166.585 94.441 166.553 94.128 166.519H94.113C98.683 156.324 96.372 146.802 87.137 137.575C81.08 131.526 77.051 122.594 76.215 120.633C74.5229 114.828 70.045 108.375 62.608 108.375C61.979 108.375 61.351 108.425 60.73 108.523C57.472 109.036 54.624 110.911 52.592 113.733C50.396 111.002 48.262 108.831 46.332 107.605C43.422 105.76 40.5179 104.824 37.6889 104.824C34.1579 104.824 31.0019 106.274 28.8019 108.904L28.7459 108.971C28.7039 108.798 28.6639 108.625 28.6229 108.451L28.6179 108.428C28.1992 106.638 27.8477 104.833 27.5639 103.016C27.5639 103.004 27.5639 102.992 27.5579 102.98C27.5359 102.843 27.5159 102.705 27.4949 102.568C27.4334 102.162 27.3757 101.755 27.3219 101.348C27.2979 101.163 27.2719 100.978 27.2489 100.793L27.1809 100.238C27.1589 100.053 27.1409 99.885 27.1209 99.709L27.115 99.6649C27.0351 98.9449 26.9651 98.225 26.9049 97.503L26.8829 97.226L26.8479 96.754C26.8379 96.625 26.8279 96.495 26.8209 96.365C26.8209 96.334 26.8159 96.3039 26.8149 96.2749C26.7895 95.9129 26.7678 95.55 26.7499 95.187C26.7399 94.998 26.7299 94.81 26.7219 94.62L26.7019 94.124L26.6969 93.974L26.6809 93.517L26.6709 93.128C26.6709 92.973 26.6629 92.818 26.6609 92.663C26.6579 92.508 26.6539 92.338 26.6529 92.174C26.6509 92.01 26.6529 91.848 26.6479 91.685C26.6439 91.521 26.6479 91.358 26.6479 91.195C26.6479 49.3421 60.5789 15.4111 102.436 15.4111C144.292 15.4111 178.222 49.3411 178.222 91.195V92.174C178.222 92.337 178.217 92.501 178.214 92.663C178.214 92.798 178.208 92.931 178.204 93.068C178.204 93.188 178.199 93.309 178.195 93.425C178.195 93.578 178.186 93.731 178.181 93.884V93.896L178.16 94.427C178.153 94.582 178.147 94.738 178.139 94.893L178.134 95.003L178.107 95.499C178.048 96.562 177.967 97.623 177.866 98.683V98.696C177.849 98.87 177.832 99.044 177.813 99.218L177.768 99.629L177.679 100.433L177.628 100.84L177.565 101.319C177.542 101.493 177.519 101.668 177.493 101.841C177.467 102.036 177.438 102.23 177.409 102.424L177.34 102.883L177.258 103.403C177.23 103.576 177.2 103.748 177.168 103.92C177.135 104.093 177.109 104.265 177.079 104.437C177.019 104.781 176.956 105.125 176.89 105.468C176.789 105.981 176.686 106.493 176.58 107.005L176.47 107.512C176.434 107.681 176.395 107.851 176.357 108.02C174.224 105.947 171.399 104.818 168.284 104.818C165.457 104.818 162.55 105.753 159.641 107.598C157.711 108.824 155.578 110.996 153.381 113.726C151.346 110.904 148.498 109.029 145.242 108.516C144.621 108.418 143.993 108.368 143.364 108.368C135.925 108.368 131.45 114.821 129.757 120.626C128.917 122.587 124.887 131.519 118.825 137.577C109.596 146.775 107.268 156.254 111.766 166.407ZM190.007 145.998L189.977 146.087C189.901 146.288 189.813 146.484 189.714 146.674C189.639 146.814 189.558 146.95 189.47 147.082C189.303 147.331 189.12 147.569 188.921 147.793C188.875 147.845 188.831 147.897 188.779 147.948C188.707 148.025 188.634 148.101 188.559 148.175C187.213 149.509 185.161 150.679 182.841 151.752C182.578 151.871 182.311 151.99 182.042 152.11L181.774 152.229C181.595 152.308 181.416 152.386 181.228 152.463C181.049 152.541 180.863 152.619 180.677 152.695L180.119 152.925C178.814 153.462 177.477 153.974 176.173 154.479L175.615 154.696L175.064 154.912C174.697 155.055 174.335 155.198 173.979 155.341L173.448 155.555L172.926 155.768L172.67 155.876C172.499 155.947 172.332 156.018 172.165 156.089C168.328 157.736 165.567 159.411 166.147 161.489C166.163 161.548 166.181 161.604 166.201 161.659C166.253 161.813 166.324 161.958 166.413 162.095C166.465 162.176 166.525 162.253 166.592 162.323C167.274 163.032 168.515 162.92 170.08 162.357C170.3 162.276 170.519 162.192 170.736 162.104L170.872 162.048C171.23 161.896 171.609 161.726 171.996 161.542C172.093 161.496 172.191 161.452 172.289 161.401C174.203 160.465 176.372 159.205 178.524 158.058C179.385 157.593 180.258 157.152 181.142 156.733C183.18 155.774 185.096 155.094 186.636 155.094C187.359 155.094 187.997 155.242 188.529 155.582L188.618 155.641C188.952 155.876 189.232 156.178 189.441 156.528C189.482 156.595 189.522 156.666 189.561 156.739C190.322 158.184 189.685 159.68 188.194 161.147C186.763 162.556 184.537 163.937 182.007 165.215C181.819 165.31 181.631 165.405 181.44 165.498C173.91 169.196 164.049 171.981 163.912 172.016C161.284 172.697 157.526 173.591 153.292 174.26L152.666 174.358L152.563 174.373C152.089 174.445 151.614 174.512 151.138 174.574C150.655 174.639 150.167 174.698 149.676 174.753L149.586 174.763C147.806 174.968 146.019 175.104 144.228 175.169H144.202C143.554 175.192 142.907 175.204 142.259 175.204H141.512C140.524 175.191 139.538 175.146 138.553 175.07C138.53 175.07 138.505 175.07 138.482 175.064C138.129 175.037 137.777 175.004 137.425 174.965C137.06 174.926 136.696 174.882 136.333 174.833C136.094 174.801 135.856 174.765 135.618 174.726C135.376 174.687 135.134 174.647 134.893 174.605L134.564 174.543L134.539 174.538C134.192 174.472 133.847 174.399 133.503 174.319C133.303 174.274 133.104 174.23 132.907 174.176L132.788 174.146C132.69 174.122 132.595 174.096 132.498 174.07L132.445 174.056L132.137 173.966C132.025 173.935 131.913 173.901 131.801 173.868L131.762 173.857L131.471 173.768C131.361 173.734 131.251 173.698 131.142 173.662L130.874 173.573L130.677 173.504C130.487 173.437 130.298 173.368 130.111 173.296L129.933 173.226L129.786 173.168C129.502 173.054 129.22 172.935 128.941 172.81L128.756 172.72L128.725 172.706C128.659 172.675 128.594 172.644 128.528 172.617C128.399 172.555 128.271 172.491 128.144 172.426L128.105 172.407L127.921 172.31C127.594 172.139 127.274 171.957 126.96 171.764L126.788 171.658C126.702 171.605 126.616 171.55 126.532 171.494L126.308 171.346L126.067 171.18L125.923 171.077C125.771 170.969 125.622 170.857 125.476 170.742L125.243 170.563C125.15 170.488 125.058 170.412 124.967 170.335C124.89 170.272 124.815 170.206 124.74 170.14L124.734 170.135C124.653 170.064 124.574 169.993 124.495 169.92C124.417 169.849 124.339 169.777 124.263 169.704L124.254 169.695C124.174 169.619 124.096 169.542 124.019 169.463C123.942 169.385 123.863 169.307 123.788 169.227C123.713 169.148 123.636 169.067 123.562 168.984C123.488 168.902 123.42 168.827 123.35 168.746L123.327 168.719C123.259 168.641 123.192 168.562 123.126 168.481C122.983 168.31 122.844 168.135 122.71 167.956C122.575 167.776 122.443 167.592 122.314 167.405L122.191 167.221C122.027 166.981 121.867 166.739 121.712 166.493C121.596 166.316 121.483 166.138 121.373 165.957C121.302 165.844 121.234 165.73 121.166 165.618L121.138 165.572C121.073 165.462 121.009 165.354 120.947 165.245C120.911 165.186 120.877 165.127 120.845 165.066C120.812 165.004 120.774 164.941 120.739 164.878L120.682 164.779L120.647 164.715C120.58 164.595 120.514 164.474 120.45 164.352C120.42 164.298 120.391 164.244 120.36 164.192L120.271 164.019L120.181 163.848C119.956 163.398 119.743 162.942 119.543 162.48L119.472 162.311C119.426 162.198 119.383 162.086 119.337 161.975C119.315 161.921 119.293 161.868 119.274 161.814C119.167 161.537 119.067 161.257 118.975 160.975C118.942 160.874 118.91 160.775 118.88 160.675C118.808 160.448 118.743 160.219 118.685 159.988C118.614 159.719 118.551 159.448 118.498 159.175C118.487 159.12 118.476 159.065 118.467 159.012C118.415 158.745 118.373 158.476 118.34 158.206C118.332 158.153 118.326 158.1 118.32 158.047L118.303 157.885C118.281 157.673 118.264 157.46 118.254 157.247C118.254 157.193 118.249 157.139 118.247 157.087C118.242 156.981 118.24 156.875 118.239 156.769C118.183 152.496 120.345 148.388 124.968 143.767C133.203 135.54 137.997 123.501 137.997 123.501C137.997 123.501 138.126 122.996 138.394 122.269C138.431 122.168 138.47 122.064 138.514 121.955C138.67 121.548 138.846 121.148 139.041 120.758L139.08 120.683C139.246 120.351 139.428 120.027 139.624 119.712C139.67 119.639 139.714 119.567 139.765 119.494C139.912 119.277 140.067 119.065 140.23 118.86C140.319 118.749 140.416 118.639 140.513 118.532C140.552 118.49 140.59 118.448 140.631 118.408C141.108 117.915 141.653 117.513 142.27 117.299L142.348 117.273C142.4 117.256 142.452 117.24 142.505 117.225C142.566 117.209 142.627 117.195 142.69 117.182L142.719 117.176C142.849 117.15 142.981 117.133 143.114 117.124H143.125C143.194 117.124 143.264 117.117 143.335 117.117C143.424 117.117 143.507 117.117 143.594 117.126C143.684 117.134 143.773 117.144 143.863 117.158C144.605 117.276 145.311 117.718 145.919 118.4C146.15 118.66 146.358 118.94 146.54 119.236C146.66 119.428 146.773 119.631 146.88 119.845C146.923 119.934 146.964 120.016 147.004 120.104C147.108 120.33 147.202 120.56 147.284 120.795C147.479 121.345 147.626 121.911 147.723 122.487C147.807 122.992 147.857 123.502 147.873 124.013C147.881 124.286 147.881 124.563 147.873 124.842C147.819 126.14 147.553 127.421 147.086 128.634C147.044 128.745 146.997 128.857 146.952 128.969C146.86 129.195 146.759 129.417 146.65 129.634C146.569 129.799 146.484 129.965 146.392 130.13C146.332 130.24 146.269 130.35 146.206 130.46C146.045 130.734 145.871 131.006 145.684 131.277L145.571 131.439C145.129 132.055 144.637 132.633 144.099 133.167C143.569 133.698 143.001 134.189 142.4 134.637C141.798 135.083 141.233 135.577 140.711 136.114C139.208 137.691 138.858 139.083 139.196 140.138C139.25 140.304 139.321 140.465 139.407 140.617C139.508 140.791 139.628 140.951 139.764 141.097L139.817 141.152L139.871 141.206C139.925 141.258 139.982 141.309 140.043 141.359L140.103 141.407C140.248 141.519 140.402 141.619 140.563 141.707C140.61 141.732 140.652 141.757 140.705 141.781C140.879 141.866 141.058 141.939 141.242 141.998C141.293 142.015 141.344 142.03 141.396 142.046L141.461 142.063L141.551 142.087L141.628 142.106L141.712 142.124L141.795 142.141L141.874 142.154C141.932 142.164 141.992 142.174 142.052 142.181L142.109 142.19L142.213 142.2L142.277 142.207L142.382 142.214H142.444L142.554 142.22H142.9L142.999 142.214L143.113 142.207L143.252 142.194L143.382 142.179C143.412 142.179 143.442 142.171 143.472 142.165C143.872 142.107 144.264 142.001 144.639 141.849L144.798 141.782C144.887 141.743 144.977 141.702 145.059 141.658C145.235 141.57 145.406 141.47 145.57 141.361C145.799 141.211 146.015 141.043 146.217 140.858C146.265 140.815 146.312 140.769 146.358 140.725C146.381 140.703 146.403 140.682 146.425 140.658C146.469 140.613 146.514 140.569 146.558 140.52C146.878 140.168 147.155 139.78 147.383 139.363C149.34 135.804 151.391 132.298 153.534 128.849L153.828 128.378L154.125 127.907C154.273 127.668 154.423 127.433 154.572 127.199L154.722 126.965C155.22 126.185 155.726 125.41 156.241 124.641L156.546 124.185C157.158 123.278 157.768 122.396 158.373 121.558L158.674 121.143C159.332 120.236 160.017 119.348 160.728 118.482L161.01 118.144C161.057 118.088 161.1 118.032 161.151 117.978C161.244 117.868 161.337 117.761 161.428 117.657C161.474 117.604 161.517 117.552 161.566 117.5L161.834 117.198L161.968 117.051C162.103 116.906 162.235 116.767 162.365 116.634C162.455 116.544 162.538 116.455 162.624 116.371C163.131 115.853 163.69 115.388 164.293 114.985L164.433 114.895C164.567 114.805 164.706 114.721 164.848 114.645C167.212 113.303 169.169 113.204 170.296 114.331C170.978 115.013 171.356 116.144 171.335 117.718C171.335 117.787 171.335 117.857 171.33 117.929V118.006C171.33 118.078 171.324 118.15 171.318 118.223C171.318 118.313 171.308 118.402 171.299 118.492C171.29 118.581 171.285 118.649 171.276 118.729C171.276 118.751 171.272 118.774 171.268 118.798C171.262 118.867 171.253 118.938 171.243 119.009C171.243 119.03 171.243 119.052 171.235 119.074C171.224 119.169 171.21 119.263 171.194 119.357C171.183 119.447 171.168 119.531 171.152 119.619L171.126 119.768C171.1 119.91 171.067 120.05 171.026 120.188C170.948 120.447 170.854 120.7 170.743 120.946C170.588 121.284 170.417 121.613 170.229 121.933C170.125 122.111 170.018 122.286 169.907 122.459C169.793 122.638 169.673 122.819 169.549 123.002C169.233 123.454 168.905 123.897 168.564 124.33L168.408 124.527C167.852 125.22 167.278 125.899 166.686 126.562L166.499 126.772C166.247 127.053 165.991 127.336 165.729 127.62L165.532 127.834C165.401 127.977 165.264 128.12 165.132 128.264C165.001 128.407 164.864 128.552 164.726 128.697L164.315 129.13L163.898 129.566L163.478 130.002C163.196 130.294 162.913 130.586 162.628 130.878C158.573 135.037 154.301 139.182 152.855 141.766C152.758 141.934 152.671 142.108 152.593 142.285C152.387 142.755 152.301 143.157 152.36 143.482C152.379 143.589 152.416 143.691 152.471 143.785C152.552 143.926 152.651 144.056 152.766 144.172C152.819 144.224 152.875 144.272 152.934 144.316C153.232 144.528 153.591 144.637 153.957 144.627H154.071L154.188 144.618L154.305 144.605L154.402 144.591C154.415 144.589 154.429 144.587 154.442 144.583L154.531 144.566L154.554 144.561L154.653 144.54L154.688 144.531C154.723 144.522 154.757 144.513 154.792 144.503C154.827 144.493 154.875 144.48 154.917 144.466C155.093 144.413 155.265 144.35 155.434 144.278C155.523 144.242 155.61 144.203 155.696 144.161C155.741 144.141 155.786 144.12 155.828 144.098L155.962 144.032C156.282 143.866 156.594 143.685 156.898 143.491L157.031 143.401C157.076 143.373 157.121 143.344 157.164 143.312L157.297 143.223L157.368 143.174L157.56 143.039C157.739 142.916 157.906 142.789 158.075 142.66L158.09 142.648L158.359 142.44C158.726 142.15 159.074 141.858 159.39 141.583L159.6 141.399L159.619 141.381L159.729 141.284C159.987 141.052 160.217 140.836 160.408 140.658L160.487 140.581C160.556 140.516 160.619 140.455 160.676 140.403L160.788 140.292L160.828 140.253L160.839 140.242L160.956 140.125L161.03 140.048L161.039 140.041L161.074 140.009L161.118 139.969L161.132 139.956L161.169 139.922L161.373 139.743L161.487 139.641C161.548 139.588 161.607 139.534 161.666 139.479L161.802 139.358C161.827 139.338 161.851 139.316 161.876 139.294L162.019 139.169L162.229 138.984L162.341 138.887C162.776 138.509 163.305 138.052 163.913 137.537L164.162 137.326L164.573 136.981L164.994 136.63C165.544 136.173 166.136 135.688 166.762 135.185L167.173 134.855C167.523 134.576 167.882 134.292 168.246 134.006C168.393 133.891 168.542 133.776 168.694 133.662C169.066 133.373 169.44 133.086 169.817 132.803C170.675 132.155 171.56 131.506 172.456 130.874L172.84 130.606C173.109 130.421 173.377 130.235 173.645 130.054L173.888 129.89C174.367 129.565 174.853 129.248 175.343 128.939L175.586 128.786L175.827 128.636C176.069 128.486 176.309 128.339 176.548 128.196L176.787 128.053L177.265 127.775L177.734 127.506L177.829 127.454L178.2 127.25C178.355 127.166 178.509 127.085 178.663 127.006L178.892 126.888L179.115 126.776C179.193 126.739 179.27 126.7 179.346 126.663C179.848 126.415 180.36 126.187 180.88 125.979C181.021 125.919 181.161 125.865 181.3 125.818L181.71 125.674C181.833 125.633 181.953 125.594 182.068 125.559L182.108 125.547C182.17 125.527 182.232 125.509 182.293 125.493L182.311 125.488C182.439 125.451 182.566 125.419 182.691 125.389H182.7C183.054 125.304 183.414 125.243 183.777 125.206C183.944 125.189 184.111 125.18 184.279 125.181H184.363C184.475 125.181 184.583 125.188 184.69 125.199C184.739 125.199 184.788 125.209 184.836 125.215H184.856C184.904 125.221 184.952 125.228 185 125.239C185.047 125.248 185.095 125.256 185.141 125.267H185.156C185.203 125.277 185.245 125.289 185.294 125.303C185.548 125.374 185.79 125.484 186.012 125.628C186.121 125.699 186.223 125.779 186.317 125.868L186.344 125.894C186.362 125.91 186.379 125.927 186.395 125.944L186.444 125.997C186.846 126.418 187.178 126.901 187.428 127.427L187.466 127.517C187.551 127.717 187.618 127.924 187.666 128.135C187.808 128.781 187.753 129.455 187.508 130.07C187.415 130.318 187.302 130.557 187.169 130.785C186.858 131.309 186.489 131.796 186.07 132.237L185.981 132.332C185.848 132.472 185.71 132.612 185.565 132.752C185.501 132.815 185.434 132.877 185.367 132.94L185.162 133.129L185.055 133.224C184.797 133.454 184.532 133.677 184.263 133.893C184.1 134.025 183.936 134.154 183.77 134.281C183.184 134.729 182.587 135.161 181.979 135.578C181.612 135.83 181.242 136.077 180.869 136.321C179.95 136.924 179.021 137.512 178.083 138.084C176.115 139.294 173.934 140.588 171.609 141.995L171.007 142.36C170.348 142.762 169.726 143.146 169.14 143.512L168.845 143.697L168.287 144.055C167.917 144.292 167.548 144.531 167.179 144.77L166.882 144.966C166.737 145.06 166.593 145.156 166.449 145.252L166.308 145.342L165.876 145.633L165.647 145.79L165.379 145.976L165.13 146.149C164.713 146.444 164.325 146.725 163.968 146.992L163.834 147.094C163.624 147.253 163.416 147.415 163.211 147.58C162.902 147.829 162.62 148.067 162.367 148.296L162.243 148.409C162.172 148.474 162.102 148.539 162.035 148.603C161.989 148.648 161.946 148.693 161.898 148.736L161.834 148.8C161.691 148.944 161.551 149.091 161.416 149.242L161.35 149.318C161.203 149.488 161.075 149.651 160.963 149.81L160.913 149.881C160.825 150.009 160.744 150.141 160.671 150.277C160.652 150.311 160.635 150.345 160.618 150.379L160.569 150.481L160.536 150.555L160.515 150.605L160.498 150.65L160.475 150.711C160.413 150.88 160.37 151.056 160.345 151.234L160.337 151.296L160.331 151.354V151.669C160.331 151.695 160.331 151.721 160.338 151.749L160.343 151.797C160.343 151.823 160.349 151.848 160.353 151.876C160.357 151.902 160.364 151.949 160.372 151.986V151.991C160.379 152.026 160.386 152.06 160.395 152.095C160.404 152.13 160.413 152.17 160.424 152.206C160.443 152.277 160.467 152.347 160.492 152.417C160.508 152.459 160.523 152.5 160.54 152.541C160.54 152.549 160.546 152.558 160.55 152.566L160.586 152.647L160.636 152.758C160.69 152.873 160.749 152.985 160.813 153.094L160.879 153.208L160.947 153.322C160.959 153.341 160.973 153.359 160.988 153.376L161.01 153.399L161.035 153.422L161.061 153.442C161.099 153.469 161.14 153.49 161.183 153.505C161.206 153.513 161.23 153.519 161.254 153.525C161.831 153.655 163.017 153.178 164.593 152.346C164.682 152.298 164.78 152.248 164.875 152.196L165.355 151.934L165.589 151.804C165.756 151.715 165.926 151.614 166.1 151.515L166.417 151.336C168.5 150.137 170.988 148.597 173.56 147.093C173.801 146.952 174.043 146.811 174.285 146.672L174.771 146.361C175.335 146.038 175.902 145.719 176.471 145.404C177.188 145.01 177.91 144.626 178.639 144.254L179.115 144.013C179.431 143.857 179.744 143.705 180.053 143.557C180.651 143.273 181.256 143.003 181.868 142.748L182.203 142.612L182.243 142.596C184.018 141.893 185.627 141.459 186.929 141.459C187.21 141.456 187.492 141.48 187.769 141.528H187.778C187.867 141.544 187.948 141.562 188.031 141.582H188.046C188.259 141.636 188.466 141.713 188.662 141.812C188.937 141.954 189.184 142.143 189.393 142.371C189.489 142.477 189.574 142.592 189.649 142.714C189.789 142.929 189.899 143.162 189.978 143.406C190.01 143.501 190.038 143.594 190.067 143.693C190.278 144.45 190.257 145.253 190.007 145.998Z" fill="#FF9D00"/>
<path fill-rule="evenodd" clip-rule="evenodd" d="M178.21 91.6851V91.1941C178.21 49.3401 144.292 15.4111 102.435 15.4111C60.5789 15.4111 26.6478 49.3421 26.6478 91.1941V91.3581C26.6458 91.4671 26.6448 91.5761 26.6478 91.6851C26.6527 91.8481 26.6544 92.0111 26.6528 92.1741L26.6579 92.5341L26.6608 92.6631C26.6608 92.7231 26.6629 92.7821 26.6649 92.8421C26.6679 92.9371 26.6698 93.0331 26.6698 93.1281L26.6808 93.5171L26.6968 93.9741L26.7018 94.1241L26.7218 94.5971V94.6201C26.7298 94.8051 26.7399 94.9891 26.7489 95.1731L26.7498 95.1871C26.7598 95.3751 26.7699 95.5641 26.7819 95.7531C26.7919 95.9271 26.8018 96.1011 26.8148 96.2751L26.8169 96.3061C26.8256 96.4551 26.8356 96.6051 26.8468 96.7541L26.8498 96.7941L26.8828 97.2261L26.8859 97.2541C26.8919 97.3381 26.8978 97.4221 26.9058 97.5031C26.9656 98.2241 27.0353 98.9451 27.1149 99.6641L27.1198 99.7091L27.1808 100.238L27.2489 100.793L27.2988 101.17L27.3218 101.347C27.3751 101.755 27.4328 102.162 27.4948 102.568L27.4989 102.595L27.5578 102.979C27.8433 104.808 28.1969 106.626 28.6178 108.429L28.6229 108.451L28.6548 108.586L28.7458 108.971L28.8018 108.904C31.0018 106.274 34.1578 104.824 37.6888 104.824C40.5188 104.824 43.4219 105.76 46.3319 107.605C48.2619 108.831 50.3959 111.002 52.5919 113.733C54.6239 110.911 57.4719 109.035 60.7299 108.523C61.3511 108.425 61.979 108.376 62.6079 108.375C70.0439 108.375 74.5228 114.828 76.2148 120.633C77.0508 122.594 81.0798 131.526 87.1558 137.568C96.3918 146.795 98.7028 156.316 94.1318 166.511H94.1478C94.4588 166.546 94.7718 166.578 95.0868 166.607C95.2738 166.625 95.4598 166.643 95.6478 166.659L95.7138 166.665L96.1268 166.7L96.5068 166.73C96.8688 166.758 97.2318 166.784 97.5958 166.807L97.8848 166.824L98.1138 166.838L98.2558 166.846L98.7028 166.869L98.8248 166.874L99.2938 166.895L99.8158 166.915L100.235 166.927L100.305 166.929C100.394 166.933 100.483 166.936 100.572 166.936L100.668 166.939C101.258 166.953 101.847 166.96 102.437 166.959H103.063L103.51 166.954C103.62 166.949 103.729 166.949 103.84 166.949H104.014L104.165 166.945C104.224 166.943 104.283 166.941 104.343 166.941H104.522L104.873 166.932L105.401 166.914L105.982 166.888C106.15 166.882 106.316 166.873 106.482 166.865L106.661 166.854L106.927 166.84L107.083 166.831L107.201 166.823L107.738 166.788L108.274 166.749L108.761 166.71L109.103 166.681L109.479 166.647C110.107 166.591 110.733 166.525 111.359 166.45L111.786 166.399C107.287 156.247 109.616 146.767 118.813 137.577C124.876 131.519 128.905 122.587 129.745 120.625C131.438 114.821 135.914 108.368 143.352 108.368C143.981 108.368 144.61 108.418 145.231 108.516C148.486 109.028 151.334 110.904 153.369 113.726C155.566 110.996 157.699 108.823 159.63 107.597C162.539 105.753 165.445 104.817 168.272 104.817C171.388 104.817 174.212 105.947 176.345 108.02C176.384 107.851 176.422 107.682 176.459 107.512L176.568 107.006C176.607 106.821 176.646 106.636 176.683 106.451C176.749 106.124 176.815 105.797 176.878 105.467C176.944 105.125 177.007 104.781 177.067 104.437L177.098 104.251C177.117 104.141 177.135 104.031 177.156 103.92C177.19 103.748 177.218 103.576 177.246 103.402L177.257 103.336L177.328 102.883L177.398 102.424V102.42C177.449 102.081 177.497 101.742 177.542 101.403L177.553 101.319L177.616 100.841L177.667 100.433L177.757 99.6291L177.792 99.3061L177.801 99.2181C177.82 99.0441 177.838 98.8701 177.854 98.6961V98.6821C177.867 98.5441 177.881 98.4051 177.893 98.2661C177.964 97.4781 178.024 96.6861 178.072 95.8911C178.081 95.7611 178.088 95.6301 178.096 95.4991V95.4931L178.122 95.0021L178.128 94.8921C178.144 94.5601 178.158 94.2281 178.169 93.8961V93.8841L178.174 93.7541C178.179 93.6451 178.183 93.5351 178.183 93.4251L178.185 93.3811C178.189 93.2781 178.193 93.1721 178.193 93.0671L178.196 92.9771C178.199 92.8721 178.202 92.7681 178.202 92.6631L178.204 92.5741C178.207 92.4411 178.21 92.3071 178.21 92.1741V91.6851ZM83.6378 167.391C89.6398 158.59 89.2138 151.984 80.9798 143.754C72.7439 135.523 67.9508 123.487 67.9508 123.487C67.9508 123.487 66.1619 116.496 62.0819 117.138C58.0019 117.78 55.0089 128.227 63.5519 134.622C72.0939 141.017 61.8519 145.353 58.5639 139.352C55.2759 133.35 46.2988 117.923 41.6448 114.972C36.9908 112.021 33.7178 113.675 34.8148 119.757C35.3598 122.776 40.4279 127.929 45.1629 132.743C49.9669 137.627 54.4278 142.163 53.4738 143.768C51.5808 146.955 44.9139 140.023 44.9139 140.023C44.9139 140.023 24.0378 121.025 19.4938 125.976C15.3038 130.539 21.7648 134.418 31.7209 140.397C32.5669 140.905 33.4389 141.429 34.3319 141.969C45.7229 148.865 46.6088 150.684 44.9918 153.293C44.3948 154.257 40.5818 151.968 35.8918 149.153C27.8968 144.352 17.3549 138.023 15.8659 143.688C14.5779 148.591 22.3338 151.595 29.3678 154.32C35.2278 156.59 40.5879 158.666 39.7989 161.484C38.9819 164.406 34.5529 161.969 29.7119 159.305C24.2769 156.314 18.3219 153.038 16.3729 156.735C12.6899 163.725 41.7829 171.954 42.0229 172.015C51.4229 174.453 75.2948 179.619 83.6378 167.391ZM122.303 167.391C116.301 158.59 116.727 151.984 124.962 143.754C133.197 135.523 137.99 123.487 137.99 123.487C137.99 123.487 139.779 116.496 143.859 117.138C147.939 117.78 150.932 128.227 142.39 134.622C133.847 141.017 144.089 145.353 147.377 139.352C150.666 133.35 159.637 117.923 164.291 114.972C168.945 112.021 172.22 113.675 171.122 119.757C170.578 122.776 165.509 127.929 160.774 132.744C155.97 137.628 151.509 142.163 152.462 143.768C154.355 146.955 161.027 140.019 161.027 140.019C161.027 140.019 181.902 121.022 186.448 125.973C190.637 130.535 184.176 134.415 174.219 140.394C173.348 140.917 172.478 141.441 171.609 141.966C160.218 148.862 159.332 150.681 160.948 153.289C161.546 154.254 165.359 151.964 170.048 149.149C178.044 144.349 188.586 138.019 190.075 143.685C191.364 148.588 183.607 151.592 176.573 154.317C170.713 156.587 165.353 158.663 166.141 161.481C166.957 164.402 171.385 161.965 176.225 159.301C181.66 156.31 187.616 153.032 189.564 156.732C193.248 163.726 164.15 171.947 163.915 172.007C154.515 174.453 130.643 179.619 122.303 167.391Z" fill="#FFD21E"/>
<path fill-rule="evenodd" clip-rule="evenodd" d="M127.047 70.567C128.229 70.985 129.108 72.257 129.944 73.468C131.074 75.104 132.126 76.627 133.74 75.769C135.644 74.756 137.205 73.202 138.225 71.302C139.246 69.402 139.681 67.2427 139.475 65.096C139.321 63.4908 138.813 61.9398 137.987 60.5548C137.161 59.1697 136.038 57.985 134.7 57.0862C133.361 56.1874 131.839 55.5968 130.245 55.3569C128.65 55.117 127.022 55.2339 125.478 55.699C123.934 56.1639 122.513 56.9653 121.316 58.0455C120.119 59.1257 119.176 60.4578 118.556 61.946C117.936 63.4342 117.653 65.0415 117.728 66.652C117.804 68.263 118.235 69.836 118.992 71.26C119.74 72.667 121.4 72.003 123.152 71.302C124.525 70.753 125.956 70.181 127.047 70.567ZM75.672 70.567C74.49 70.985 73.611 72.258 72.775 73.468C71.645 75.105 70.592 76.627 68.979 75.769C66.5845 74.501 64.7482 72.386 63.8278 69.838C62.9075 67.2895 62.9692 64.4896 64.0008 61.9841C65.0324 59.4786 66.9601 57.4471 69.408 56.2855C71.856 55.1239 74.6488 54.9156 77.242 55.701C79.307 56.3228 81.141 57.5427 82.513 59.2065C83.885 60.8704 84.732 62.9035 84.949 65.049C85.165 67.1945 84.74 69.356 83.728 71.26C82.979 72.667 81.319 72.003 79.567 71.303C78.193 70.753 76.764 70.181 75.672 70.567ZM119.099 117.318C127.242 110.903 130.233 100.429 130.233 93.977C130.233 88.877 126.802 90.482 121.309 93.202L120.999 93.355C115.957 95.852 109.245 99.177 101.877 99.177C94.508 99.177 87.796 95.852 82.755 93.354C77.084 90.545 73.527 88.783 73.527 93.978C73.527 100.634 76.709 111.563 85.443 117.912C86.596 115.573 88.219 113.497 90.211 111.813C92.202 110.129 94.52 108.874 97.018 108.126C97.89 107.866 98.788 109.367 99.707 110.904C100.594 112.386 101.501 113.902 102.423 113.902C103.406 113.902 104.371 112.408 105.314 110.95C106.299 109.425 107.26 107.94 108.189 108.237C112.864 109.738 116.775 112.993 119.099 117.318Z" fill="#32343D"/>
<path d="M119.097 117.317C114.856 120.659 109.219 122.9 101.878 122.9C94.9809 122.9 89.5869 120.922 85.4429 117.911C86.5959 115.572 88.2189 113.495 90.2109 111.812C92.2019 110.128 94.5199 108.873 97.0179 108.125C98.7299 107.614 100.545 113.901 102.423 113.901C104.433 113.901 106.37 107.655 108.189 108.236C112.863 109.738 116.773 112.993 119.097 117.317Z" fill="#FF323D"/>
<path fill-rule="evenodd" clip-rule="evenodd" d="M56.2 79.6401C55.2312 80.2881 54.1173 80.6871 52.9572 80.8011C51.7971 80.9161 50.6267 80.7421 49.55 80.2951C48.6893 79.9401 47.9072 79.4181 47.2488 78.7591C46.5903 78.1011 46.0684 77.3191 45.713 76.4581C45.267 75.3811 45.0935 74.2111 45.2082 73.0511C45.3228 71.8911 45.7219 70.7771 46.37 69.8081C47.1488 68.6421 48.2558 67.7334 49.5512 67.1968C50.8466 66.6602 52.272 66.5198 53.6471 66.7936C55.0223 67.0673 56.2853 67.7428 57.2764 68.7341C58.2675 69.7261 58.9422 70.9901 59.215 72.3651C59.4883 73.7401 59.3477 75.1651 58.8113 76.4601C58.2748 77.7551 57.3654 78.8611 56.2 79.6401ZM157.613 79.6401C156.644 80.2881 155.53 80.6871 154.37 80.8011C153.209 80.9161 152.039 80.7421 150.962 80.2951C150.101 79.9391 149.319 79.4181 148.661 78.7591C148.003 78.1011 147.481 77.3191 147.125 76.4581C146.68 75.3811 146.507 74.2111 146.621 73.0511C146.736 71.8911 147.135 70.7771 147.782 69.8081C148.364 68.9361 149.133 68.2051 150.032 67.6659C150.931 67.127 151.938 66.7943 152.981 66.6918C154.025 66.5892 155.078 66.7194 156.064 67.0729C157.051 67.4265 157.947 67.9945 158.688 68.7361C159.68 69.7271 160.355 70.9901 160.628 72.3651C160.902 73.7401 160.761 75.1651 160.224 76.4601C159.687 77.7551 158.779 78.8611 157.613 79.6401Z" fill="#FFAD03"/>
</svg>
