<svg width="30" height="30" viewBox="0 0 30 30" fill="none" xmlns="http://www.w3.org/2000/svg">
<rect width="30" height="30" rx="2" fill="#5536DA"/>
<path d="M23 23V21C23 19.9391 22.5786 18.9217 21.8284 18.1716C21.0783 17.4214 20.0609 17 19 17H11C9.93913 17 8.92172 17.4214 8.17157 18.1716C7.42143 18.9217 7 19.9391 7 21V23" stroke="white" stroke-width="1.5" stroke-linecap="round" stroke-linejoin="round"/>
<path d="M15 13C17.2091 13 19 11.2091 19 9C19 6.79086 17.2091 5 15 5C12.7909 5 11 6.79086 11 9C11 11.2091 12.7909 13 15 13Z" stroke="white" stroke-width="1.5" stroke-linecap="round" stroke-linejoin="round"/>
</svg>
